<?xml version="1.0" encoding="utf-8"?>
<!-- Generator: Adobe Illustrator 27.5.0, SVG Export Plug-In . SVG Version: 6.00 Build 0)  -->
<svg version="1.1" xmlns="http://www.w3.org/2000/svg" xmlns:xlink="http://www.w3.org/1999/xlink" x="0px" y="0px"
	 viewBox="0 0 500 500" style="enable-background:new 0 0 500 500;" xml:space="preserve">
<g id="Background_Simple">
	<g>
		<path style="fill:#92E3A9;" d="M409.671,86.726c-43.154-34.092-98.16-51.811-152.58-55.793c-82-6-130,37-131,81
			s-23.93,91.807-77.965,146.404C-5.909,312.932,7.091,394.932,98.091,420.932s166-12,197-34c31-22,96,42,139,21
			c27.374-13.368,38.85-59.05,44.866-85.524c11.233-49.431,10.403-103.014-7.044-150.923
			C459.227,136.651,437.209,108.481,409.671,86.726z"/>
		<path style="opacity:0.7;fill:#FFFFFF;" d="M409.671,86.726c-43.154-34.092-98.16-51.811-152.58-55.793c-82-6-130,37-131,81
			s-23.93,91.807-77.965,146.404C-5.909,312.932,7.091,394.932,98.091,420.932s166-12,197-34c31-22,96,42,139,21
			c27.374-13.368,38.85-59.05,44.866-85.524c11.233-49.431,10.403-103.014-7.044-150.923
			C459.227,136.651,437.209,108.481,409.671,86.726z"/>
	</g>
</g>
<g id="Wall">
	
		<line style="fill:none;stroke:#263238;stroke-linecap:round;stroke-linejoin:round;stroke-miterlimit:10;" x1="263.74" y1="24" x2="263.74" y2="293.768"/>
</g>
<g id="Room_3">
	<g style="opacity:0.3;">
		<g>
			<path style="fill:#FFFFFF;stroke:#000000;stroke-linecap:round;stroke-linejoin:round;stroke-miterlimit:10;" d="
				M325.305,443.962H81.225c-2.676,0-4.845-2.169-4.845-4.845v-35.128c0-2.676,2.169-4.845,4.845-4.845h244.08
				c2.676,0,4.845,2.169,4.845,4.845v35.128C330.15,441.792,327.981,443.962,325.305,443.962z"/>
			<path style="fill:#FFFFFF;stroke:#000000;stroke-linecap:round;stroke-linejoin:round;stroke-miterlimit:10;" d="
				M316.826,443.962H89.705v-62.685c0-4.516,3.661-8.176,8.176-8.176H308.65c4.516,0,8.176,3.661,8.176,8.176V443.962z"/>
			
				<rect x="89.705" y="414.89" style="fill:#FFFFFF;stroke:#000000;stroke-linecap:round;stroke-linejoin:round;stroke-miterlimit:10;" width="227.121" height="29.072"/>
		</g>
		
			<line style="fill:none;stroke:#000000;stroke-linecap:round;stroke-linejoin:round;stroke-miterlimit:10;" x1="25.95" y1="444.141" x2="490.386" y2="444.141"/>
	</g>
	<g style="opacity:0.3;">
		
			<rect x="367.093" y="373.1" style="fill:#FFFFFF;stroke:#000000;stroke-linecap:round;stroke-linejoin:round;stroke-miterlimit:10;" width="110.142" height="70.862"/>
		<g>
			
				<rect x="371.552" y="379.258" style="fill:#FFFFFF;stroke:#000000;stroke-linecap:round;stroke-linejoin:round;stroke-miterlimit:10;" width="47.537" height="23.816"/>
			
				<rect x="424.184" y="379.258" style="fill:#FFFFFF;stroke:#000000;stroke-linecap:round;stroke-linejoin:round;stroke-miterlimit:10;" width="47.537" height="23.816"/>
		</g>
		<g>
			
				<rect x="371.552" y="408.678" style="fill:#FFFFFF;stroke:#000000;stroke-linecap:round;stroke-linejoin:round;stroke-miterlimit:10;" width="47.537" height="23.816"/>
			
				<rect x="424.184" y="408.678" style="fill:#FFFFFF;stroke:#000000;stroke-linecap:round;stroke-linejoin:round;stroke-miterlimit:10;" width="47.537" height="23.816"/>
		</g>
		
			<rect x="367.093" y="367.35" style="fill:#FFFFFF;stroke:#000000;stroke-linecap:round;stroke-linejoin:round;stroke-miterlimit:10;" width="110.142" height="5.75"/>
		<path style="stroke:#000000;stroke-miterlimit:10;" d="M421.147,329.223c-0.917-2.386-3.484-3.625-5.899-2.966l-3.561-3.957
			c0.193-0.725,0.202-1.524-0.8-2.559c-0.495-0.511-1.148-0.873-1.86-0.863c-1.486,0.021-2.684,1.232-2.684,2.722
			c0,0.337,0.069,0.656,0.181,0.954l-21.805,20.084c-0.621-0.3-1.358-0.397-2.154-0.092c-0.817,0.312-1.466,1.02-1.668,1.871
			c-0.397,1.674,0.749,3.155,2.296,3.354l3.205,12.573h-6.496c-2.291,0-4.148,1.857-4.148,4.148v3.177h25.217v-3.177
			c0-2.291-1.857-4.148-4.148-4.148h-8.362l-3.329-13.061c0.682-0.495,1.131-1.293,1.131-2.2c0-0.345-0.071-0.672-0.188-0.976
			l21.794-20.073c0.362,0.179,0.765,0.288,1.196,0.288c0.512,0,0.986-0.15,1.395-0.396l2.95,3.278
			c-1.59,1.314-2.258,3.527-1.477,5.559l2.137,5.559l9.212-3.542L421.147,329.223z"/>
	</g>
	<g style="opacity:0.3;">
		<g>
			<path d="M68.489,383.403c0.032,0.019,0.563-2.384,0.579-2.539c0.186-1.799-0.512-5.383-2.365-6.199
				c-1.335-0.588-2.776,0.227-3.208,1.558c-0.441,1.36,0.237,2.985,1.01,4.092C65.413,381.615,68.487,383.402,68.489,383.403z"/>
			<path d="M32.531,383.89c1.474,0.583,5.024,0.378,5.027,0.378c0.037-0.002-0.846-2.298-0.918-2.437
				c-0.837-1.603-3.397-4.208-5.393-3.866c-1.438,0.246-2.19,1.721-1.816,3.069C29.814,382.411,31.275,383.393,32.531,383.89z"/>
			<path d="M34.121,394.136c1.514,0.167,4.652-0.865,4.901-0.948c0.563,1.757,1.283,3.514,2.111,5.252
				c0.471,0.994,0.977,1.981,1.497,2.964c-0.304-0.414-0.579-0.781-0.623-0.828c-1.231-1.325-4.388-3.162-6.222-2.305
				c-1.322,0.617-1.658,2.238-0.941,3.44c0.732,1.228,2.402,1.789,3.744,1.936c1.362,0.15,4.055-0.676,4.765-0.904
				c0.203,0.375,0.402,0.752,0.607,1.126c0.983,1.795,1.971,3.583,2.886,5.366c0.323,0.628,0.618,1.258,0.916,1.888
				c-0.271-0.367-0.502-0.673-0.542-0.717c-1.231-1.325-4.387-3.162-6.222-2.305c-1.322,0.617-1.658,2.238-0.941,3.44
				c0.732,1.228,2.402,1.788,3.744,1.936c1.3,0.143,3.792-0.597,4.637-0.864c0.285,0.654,0.572,1.309,0.819,1.955
				c0.158,0.445,0.342,0.863,0.476,1.32c0.143,0.449,0.283,0.893,0.424,1.333c0.238,0.858,0.489,1.741,0.7,2.583
				c0.151,0.585,0.285,1.145,0.42,1.708c-0.314-0.629-0.955-1.848-1.02-1.943c-1.016-1.496-3.858-3.79-5.801-3.221
				c-1.4,0.41-1.978,1.961-1.451,3.258c0.538,1.324,2.103,2.132,3.408,2.481c1.436,0.384,4.569-0.124,4.96-0.19
				c0.222,0.933,0.429,1.844,0.61,2.705c0.634,2.979,1.05,5.485,1.316,7.243l1.372-0.048c-0.009-0.053-0.017-0.101-0.026-0.155
				c-0.308-1.774-0.784-4.3-1.491-7.301c-0.221-0.949-0.477-1.958-0.749-2.993c0.233-0.102,1.556-0.693,2.722-1.399
				c1.075,1.085,3.776,2.304,4.125,2.459c-0.33,0.901-0.66,1.774-0.984,2.593c-1.115,2.837-2.152,5.157-2.899,6.771l1.506-0.053
				c0.691-1.602,1.576-3.742,2.514-6.29c0.339-0.913,0.683-1.896,1.026-2.909c0.383,0.066,3.521,0.589,4.961,0.21
				c1.306-0.344,2.874-1.145,3.418-2.467c0.532-1.295-0.04-2.848-1.438-3.263c-1.941-0.577-4.792,1.705-5.814,3.197
				c-0.06,0.088-0.608,1.116-0.942,1.77c0.138-0.414,0.277-0.815,0.414-1.244c0.277-0.845,0.528-1.697,0.802-2.612
				c0.117-0.447,0.234-0.898,0.353-1.354c0.128-0.449,0.205-0.94,0.311-1.414c0.222-1.105,0.394-2.235,0.541-3.377
				c0.741,0.24,3.384,1.056,4.733,0.914c1.343-0.142,3.015-0.696,3.752-1.921c0.722-1.199,0.392-2.821-0.927-3.444
				c-1.831-0.864-4.996,0.96-6.231,2.28c-0.077,0.082-0.857,1.129-1.275,1.713c0.083-0.688,0.17-1.373,0.231-2.071
				c0.178-2.015,0.296-4.061,0.422-6.101c0.038-0.625,0.084-1.247,0.128-1.87c0.263,0.088,3.384,1.126,4.894,0.967
				c1.343-0.142,3.015-0.696,3.752-1.921c0.722-1.199,0.392-2.821-0.927-3.444c-1.831-0.864-4.996,0.96-6.232,2.28
				c-0.093,0.099-1.214,1.607-1.48,2.005c0.096-1.372,0.205-2.739,0.367-4.081c0.221-1.853,0.539-3.659,0.978-5.386
				c0.122,0.042,3.374,1.139,4.922,0.976c1.343-0.142,3.014-0.697,3.752-1.921c0.722-1.199,0.392-2.821-0.927-3.444
				c-1.832-0.864-4.996,0.96-6.231,2.28c-0.081,0.087-0.936,1.234-1.33,1.79c-0.058-0.027-0.047-0.022-0.105-0.05
				c0.492-1.844,1.201-3.568,1.943-5.15c0.429-0.917,0.889-1.769,1.357-2.588c0.585,0.267,3.271,1.455,4.68,1.462
				c1.351,0.006,3.073-0.361,3.94-1.497c0.849-1.113,0.7-2.761-0.544-3.525c-1.725-1.06-5.071,0.405-6.444,1.581
				c-0.075,0.064-0.762,0.798-1.255,1.34c0.216-0.366,0.433-0.749,0.647-1.096c0.802-1.305,1.616-2.45,2.345-3.459
				c0.42-0.57,0.81-1.077,1.18-1.548c0.71-0.038,3.571-0.226,4.802-0.858c1.201-0.617,2.561-1.736,2.807-3.145
				c0.241-1.379-0.652-2.773-2.107-2.878c-2.02-0.146-4.313,2.696-4.991,4.373c-0.058,0.145-0.713,2.516-0.676,2.515
				c0,0,0.035-0.002,0.043-0.002c-0.366,0.446-0.752,0.928-1.164,1.464c-0.753,0.995-1.595,2.126-2.428,3.418
				c-0.836,1.289-1.708,2.714-2.49,4.297c-0.787,1.586-1.534,3.294-2.075,5.154c-0.006,0.021-0.01,0.044-0.016,0.065
				c-0.011-0.593-0.095-2.251-0.116-2.377c-0.295-1.784-1.915-5.057-3.918-5.355c-1.443-0.214-2.618,0.952-2.683,2.35
				c-0.066,1.428,1.016,2.817,2.055,3.68c1.171,0.974,4.357,1.845,4.611,1.913c-0.5,1.776-0.868,3.639-1.137,5.545
				c-0.155,1.089-0.277,2.192-0.386,3.298c-0.025-0.513-0.052-0.971-0.063-1.034c-0.296-1.784-1.915-5.057-3.918-5.355
				c-1.443-0.214-2.618,0.952-2.683,2.35c-0.067,1.428,1.016,2.817,2.055,3.681c1.054,0.876,3.755,1.673,4.473,1.875
				c-0.037,0.425-0.079,0.849-0.115,1.274c-0.171,2.039-0.333,4.076-0.553,6.068c-0.077,0.702-0.179,1.391-0.278,2.08
				c-0.023-0.455-0.047-0.839-0.056-0.897c-0.296-1.784-1.915-5.057-3.918-5.355c-1.443-0.215-2.618,0.952-2.683,2.35
				c-0.066,1.428,1.016,2.817,2.055,3.68c1.005,0.836,3.492,1.594,4.344,1.838c-0.123,0.703-0.245,1.407-0.396,2.082
				c-0.113,0.459-0.191,0.909-0.331,1.363c-0.129,0.453-0.256,0.901-0.382,1.345c-0.275,0.846-0.553,1.721-0.841,2.54
				c-0.196,0.571-0.394,1.112-0.592,1.657c0.085-0.698,0.222-2.068,0.221-2.184c-0.014-1.201-0.51-3.138-1.407-4.48
				c-0.001-0.177-0.018-0.354-0.052-0.529c-0.271-1.373-1.605-2.353-3-1.928c-1.937,0.59-3.056,4.066-3.085,5.874
				c-0.002,0.107,0.109,1.266,0.191,1.996c-0.114-0.422-0.219-0.833-0.341-1.266c-0.236-0.858-0.496-1.707-0.773-2.621
				c-0.149-0.437-0.3-0.878-0.452-1.324c-0.141-0.445-0.348-0.897-0.521-1.351c-0.424-1.044-0.905-2.081-1.412-3.115
				c0.75-0.208,3.405-0.986,4.452-1.849c1.042-0.859,2.13-2.244,2.069-3.672c-0.06-1.398-1.229-2.569-2.673-2.361
				c-2.004,0.29-3.637,3.556-3.94,5.339c-0.019,0.111-0.092,1.415-0.119,2.132c-0.31-0.619-0.616-1.239-0.95-1.855
				c-0.963-1.779-1.993-3.55-3.014-5.322c-0.313-0.542-0.618-1.086-0.925-1.63c0.268-0.071,3.444-0.927,4.616-1.894
				c1.042-0.859,2.13-2.244,2.07-3.672c-0.059-1.398-1.229-2.569-2.673-2.361c-2.004,0.29-3.637,3.557-3.94,5.339
				c-0.023,0.134-0.126,2.01-0.128,2.488c-0.677-1.197-1.34-2.397-1.946-3.606c-0.838-1.667-1.569-3.35-2.155-5.032
				c0.125-0.033,3.443-0.911,4.644-1.902c1.042-0.859,2.13-2.244,2.069-3.672c-0.059-1.398-1.229-2.569-2.673-2.361
				c-2.004,0.29-3.637,3.556-3.94,5.339c-0.02,0.117-0.1,1.547-0.122,2.228c-0.063,0.009-0.051,0.007-0.114,0.016
				c-0.607-1.81-0.968-3.639-1.22-5.368c-0.148-1.001-0.234-1.966-0.297-2.907c0.635-0.1,3.531-0.59,4.71-1.362
				c1.13-0.74,2.364-1.996,2.46-3.422c0.094-1.397-0.94-2.689-2.398-2.64c-2.024,0.068-4.005,3.135-4.502,4.874
				c-0.027,0.094-0.195,1.086-0.308,1.81c-0.021-0.425-0.052-0.863-0.064-1.271c-0.052-1.53-0.004-2.935,0.048-4.179
				c0.035-0.707,0.081-1.346,0.131-1.943c0.571-0.423,2.854-2.158,3.532-3.364c0.662-1.177,1.178-2.861,0.606-4.171
				c-0.56-1.283-2.073-1.953-3.345-1.238c-1.765,0.993-2.11,4.628-1.75,6.401c0.031,0.153,0.794,2.492,0.824,2.47
				c0,0,0.028-0.021,0.034-0.025c-0.059,0.573-0.115,1.189-0.164,1.863c-0.079,1.245-0.157,2.653-0.139,4.19
				c0.014,1.536,0.073,3.206,0.293,4.958c0.219,1.757,0.538,3.594,1.112,5.444c0.007,0.021,0.016,0.042,0.023,0.063
				c-0.336-0.489-1.321-1.824-1.408-1.919c-1.231-1.325-4.388-3.161-6.222-2.305c-1.322,0.617-1.658,2.238-0.941,3.44
				C31.109,393.428,32.778,393.989,34.121,394.136z"/>
			<path style="opacity:0.3;" d="M32.531,383.89c1.474,0.583,5.024,0.378,5.027,0.378c0.037-0.002-0.846-2.298-0.918-2.437
				c-0.837-1.603-3.397-4.208-5.393-3.866c-1.438,0.246-2.19,1.721-1.816,3.069C29.814,382.411,31.275,383.393,32.531,383.89z"/>
			<path style="opacity:0.3;" d="M68.489,383.403c0.032,0.019,0.563-2.384,0.579-2.539c0.186-1.799-0.512-5.383-2.365-6.199
				c-1.335-0.588-2.776,0.227-3.208,1.558c-0.441,1.36,0.237,2.985,1.01,4.092C65.413,381.615,68.487,383.402,68.489,383.403z"/>
			<path style="opacity:0.3;" d="M34.121,394.136c1.514,0.167,4.652-0.865,4.901-0.948c0.563,1.757,1.283,3.514,2.111,5.252
				c0.471,0.994,0.977,1.981,1.497,2.964c-0.304-0.414-0.579-0.781-0.623-0.828c-1.231-1.325-4.388-3.162-6.222-2.305
				c-1.322,0.617-1.658,2.238-0.941,3.44c0.732,1.228,2.402,1.789,3.744,1.936c1.362,0.15,4.055-0.676,4.765-0.904
				c0.203,0.375,0.402,0.752,0.607,1.126c0.983,1.795,1.971,3.583,2.886,5.366c0.323,0.628,0.618,1.258,0.916,1.888
				c-0.271-0.367-0.502-0.673-0.542-0.717c-1.231-1.325-4.387-3.162-6.222-2.305c-1.322,0.617-1.658,2.238-0.941,3.44
				c0.732,1.228,2.402,1.788,3.744,1.936c1.3,0.143,3.792-0.597,4.637-0.864c0.285,0.654,0.572,1.309,0.819,1.955
				c0.158,0.445,0.342,0.863,0.476,1.32c0.143,0.449,0.283,0.893,0.424,1.333c0.238,0.858,0.489,1.741,0.7,2.583
				c0.151,0.585,0.285,1.145,0.42,1.708c-0.314-0.629-0.955-1.848-1.02-1.943c-1.016-1.496-3.858-3.79-5.801-3.221
				c-1.4,0.41-1.978,1.961-1.451,3.258c0.538,1.324,2.103,2.132,3.408,2.481c1.436,0.384,4.569-0.124,4.96-0.19
				c0.222,0.933,0.429,1.844,0.61,2.705c0.634,2.979,1.05,5.485,1.316,7.243l1.372-0.048c-0.009-0.053-0.017-0.101-0.026-0.155
				c-0.308-1.774-0.784-4.3-1.491-7.301c-0.221-0.949-0.477-1.958-0.749-2.993c0.233-0.102,1.556-0.693,2.722-1.399
				c1.075,1.085,3.776,2.304,4.125,2.459c-0.33,0.901-0.66,1.774-0.984,2.593c-1.115,2.837-2.152,5.157-2.899,6.771l1.506-0.053
				c0.691-1.602,1.576-3.742,2.514-6.29c0.339-0.913,0.683-1.896,1.026-2.909c0.383,0.066,3.521,0.589,4.961,0.21
				c1.306-0.344,2.874-1.145,3.418-2.467c0.532-1.295-0.04-2.848-1.438-3.263c-1.941-0.577-4.792,1.705-5.814,3.197
				c-0.06,0.088-0.608,1.116-0.942,1.77c0.138-0.414,0.277-0.815,0.414-1.244c0.277-0.845,0.528-1.697,0.802-2.612
				c0.117-0.447,0.234-0.898,0.353-1.354c0.128-0.449,0.205-0.94,0.311-1.414c0.222-1.105,0.394-2.235,0.541-3.377
				c0.741,0.24,3.384,1.056,4.733,0.914c1.343-0.142,3.015-0.696,3.752-1.921c0.722-1.199,0.392-2.821-0.927-3.444
				c-1.831-0.864-4.996,0.96-6.231,2.28c-0.077,0.082-0.857,1.129-1.275,1.713c0.083-0.688,0.17-1.373,0.231-2.071
				c0.178-2.015,0.296-4.061,0.422-6.101c0.038-0.625,0.084-1.247,0.128-1.87c0.263,0.088,3.384,1.126,4.894,0.967
				c1.343-0.142,3.015-0.696,3.752-1.921c0.722-1.199,0.392-2.821-0.927-3.444c-1.831-0.864-4.996,0.96-6.232,2.28
				c-0.093,0.099-1.214,1.607-1.48,2.005c0.096-1.372,0.205-2.739,0.367-4.081c0.221-1.853,0.539-3.659,0.978-5.386
				c0.122,0.042,3.374,1.139,4.922,0.976c1.343-0.142,3.014-0.697,3.752-1.921c0.722-1.199,0.392-2.821-0.927-3.444
				c-1.832-0.864-4.996,0.96-6.231,2.28c-0.081,0.087-0.936,1.234-1.33,1.79c-0.058-0.027-0.047-0.022-0.105-0.05
				c0.492-1.844,1.201-3.568,1.943-5.15c0.429-0.917,0.889-1.769,1.357-2.588c0.585,0.267,3.271,1.455,4.68,1.462
				c1.351,0.006,3.073-0.361,3.94-1.497c0.849-1.113,0.7-2.761-0.544-3.525c-1.725-1.06-5.071,0.405-6.444,1.581
				c-0.075,0.064-0.762,0.798-1.255,1.34c0.216-0.366,0.433-0.749,0.647-1.096c0.802-1.305,1.616-2.45,2.345-3.459
				c0.42-0.57,0.81-1.077,1.18-1.548c0.71-0.038,3.571-0.226,4.802-0.858c1.201-0.617,2.561-1.736,2.807-3.145
				c0.241-1.379-0.652-2.773-2.107-2.878c-2.02-0.146-4.313,2.696-4.991,4.373c-0.058,0.145-0.713,2.516-0.676,2.515
				c0,0,0.035-0.002,0.043-0.002c-0.366,0.446-0.752,0.928-1.164,1.464c-0.753,0.995-1.595,2.126-2.428,3.418
				c-0.836,1.289-1.708,2.714-2.49,4.297c-0.787,1.586-1.534,3.294-2.075,5.154c-0.006,0.021-0.01,0.044-0.016,0.065
				c-0.011-0.593-0.095-2.251-0.116-2.377c-0.295-1.784-1.915-5.057-3.918-5.355c-1.443-0.214-2.618,0.952-2.683,2.35
				c-0.066,1.428,1.016,2.817,2.055,3.68c1.171,0.974,4.357,1.845,4.611,1.913c-0.5,1.776-0.868,3.639-1.137,5.545
				c-0.155,1.089-0.277,2.192-0.386,3.298c-0.025-0.513-0.052-0.971-0.063-1.034c-0.296-1.784-1.915-5.057-3.918-5.355
				c-1.443-0.214-2.618,0.952-2.683,2.35c-0.067,1.428,1.016,2.817,2.055,3.681c1.054,0.876,3.755,1.673,4.473,1.875
				c-0.037,0.425-0.079,0.849-0.115,1.274c-0.171,2.039-0.333,4.076-0.553,6.068c-0.077,0.702-0.179,1.391-0.278,2.08
				c-0.023-0.455-0.047-0.839-0.056-0.897c-0.296-1.784-1.915-5.057-3.918-5.355c-1.443-0.215-2.618,0.952-2.683,2.35
				c-0.066,1.428,1.016,2.817,2.055,3.68c1.005,0.836,3.492,1.594,4.344,1.838c-0.123,0.703-0.245,1.407-0.396,2.082
				c-0.113,0.459-0.191,0.909-0.331,1.363c-0.129,0.453-0.256,0.901-0.382,1.345c-0.275,0.846-0.553,1.721-0.841,2.54
				c-0.196,0.571-0.394,1.112-0.592,1.657c0.085-0.698,0.222-2.068,0.221-2.184c-0.014-1.201-0.51-3.138-1.407-4.48
				c-0.001-0.177-0.018-0.354-0.052-0.529c-0.271-1.373-1.605-2.353-3-1.928c-1.937,0.59-3.056,4.066-3.085,5.874
				c-0.002,0.107,0.109,1.266,0.191,1.996c-0.114-0.422-0.219-0.833-0.341-1.266c-0.236-0.858-0.496-1.707-0.773-2.621
				c-0.149-0.437-0.3-0.878-0.452-1.324c-0.141-0.445-0.348-0.897-0.521-1.351c-0.424-1.044-0.905-2.081-1.412-3.115
				c0.75-0.208,3.405-0.986,4.452-1.849c1.042-0.859,2.13-2.244,2.069-3.672c-0.06-1.398-1.229-2.569-2.673-2.361
				c-2.004,0.29-3.637,3.556-3.94,5.339c-0.019,0.111-0.092,1.415-0.119,2.132c-0.31-0.619-0.616-1.239-0.95-1.855
				c-0.963-1.779-1.993-3.55-3.014-5.322c-0.313-0.542-0.618-1.086-0.925-1.63c0.268-0.071,3.444-0.927,4.616-1.894
				c1.042-0.859,2.13-2.244,2.07-3.672c-0.059-1.398-1.229-2.569-2.673-2.361c-2.004,0.29-3.637,3.557-3.94,5.339
				c-0.023,0.134-0.126,2.01-0.128,2.488c-0.677-1.197-1.34-2.397-1.946-3.606c-0.838-1.667-1.569-3.35-2.155-5.032
				c0.125-0.033,3.443-0.911,4.644-1.902c1.042-0.859,2.13-2.244,2.069-3.672c-0.059-1.398-1.229-2.569-2.673-2.361
				c-2.004,0.29-3.637,3.556-3.94,5.339c-0.02,0.117-0.1,1.547-0.122,2.228c-0.063,0.009-0.051,0.007-0.114,0.016
				c-0.607-1.81-0.968-3.639-1.22-5.368c-0.148-1.001-0.234-1.966-0.297-2.907c0.635-0.1,3.531-0.59,4.71-1.362
				c1.13-0.74,2.364-1.996,2.46-3.422c0.094-1.397-0.94-2.689-2.398-2.64c-2.024,0.068-4.005,3.135-4.502,4.874
				c-0.027,0.094-0.195,1.086-0.308,1.81c-0.021-0.425-0.052-0.863-0.064-1.271c-0.052-1.53-0.004-2.935,0.048-4.179
				c0.035-0.707,0.081-1.346,0.131-1.943c0.571-0.423,2.854-2.158,3.532-3.364c0.662-1.177,1.178-2.861,0.606-4.171
				c-0.56-1.283-2.073-1.953-3.345-1.238c-1.765,0.993-2.11,4.628-1.75,6.401c0.031,0.153,0.794,2.492,0.824,2.47
				c0,0,0.028-0.021,0.034-0.025c-0.059,0.573-0.115,1.189-0.164,1.863c-0.079,1.245-0.157,2.653-0.139,4.19
				c0.014,1.536,0.073,3.206,0.293,4.958c0.219,1.757,0.538,3.594,1.112,5.444c0.007,0.021,0.016,0.042,0.023,0.063
				c-0.336-0.489-1.321-1.824-1.408-1.919c-1.231-1.325-4.388-3.161-6.222-2.305c-1.322,0.617-1.658,2.238-0.941,3.44
				C31.109,393.428,32.778,393.989,34.121,394.136z"/>
		</g>
		<rect x="50.604" y="429.988" width="9.316" height="13.974"/>
	</g>
</g>
<g id="Room_2">
	<g>
		<g>
			
				<rect x="419.996" y="130.829" style="fill:none;stroke:#B2B2B2;stroke-linecap:round;stroke-linejoin:round;stroke-miterlimit:10;" width="22.004" height="11.002"/>
			
				<rect x="448.369" y="130.829" style="fill:none;stroke:#B2B2B2;stroke-linecap:round;stroke-linejoin:round;stroke-miterlimit:10;" width="22.003" height="11.002"/>
			
				<rect x="433.893" y="144.725" style="fill:none;stroke:#B2B2B2;stroke-linecap:round;stroke-linejoin:round;stroke-miterlimit:10;" width="22.003" height="11.002"/>
			
				<rect x="433.893" y="115.773" style="fill:none;stroke:#B2B2B2;stroke-linecap:round;stroke-linejoin:round;stroke-miterlimit:10;" width="22.003" height="11.002"/>
			
				<rect x="419.996" y="171.94" style="fill:none;stroke:#B2B2B2;stroke-linecap:round;stroke-linejoin:round;stroke-miterlimit:10;" width="22.004" height="11.002"/>
			
				<rect x="448.369" y="171.94" style="fill:none;stroke:#B2B2B2;stroke-linecap:round;stroke-linejoin:round;stroke-miterlimit:10;" width="22.003" height="11.002"/>
			
				<rect x="448.369" y="54.998" style="fill:none;stroke:#B2B2B2;stroke-linecap:round;stroke-linejoin:round;stroke-miterlimit:10;" width="22.003" height="11.002"/>
			
				<rect x="421.369" y="90.998" style="fill:none;stroke:#B2B2B2;stroke-linecap:round;stroke-linejoin:round;stroke-miterlimit:10;" width="22.003" height="11.002"/>
			
				<rect x="398.996" y="66" style="fill:none;stroke:#B2B2B2;stroke-linecap:round;stroke-linejoin:round;stroke-miterlimit:10;" width="22.004" height="11.002"/>
			
				<rect x="383.862" y="48.815" style="fill:none;stroke:#B2B2B2;stroke-linecap:round;stroke-linejoin:round;stroke-miterlimit:10;" width="22.003" height="11.002"/>
			
				<rect x="433.893" y="185.837" style="fill:none;stroke:#B2B2B2;stroke-linecap:round;stroke-linejoin:round;stroke-miterlimit:10;" width="22.003" height="11.002"/>
			
				<rect x="299.89" y="210.052" style="fill:none;stroke:#B2B2B2;stroke-linecap:round;stroke-linejoin:round;stroke-miterlimit:10;" width="22.003" height="11.002"/>
			
				<rect x="328.263" y="210.052" style="fill:none;stroke:#B2B2B2;stroke-linecap:round;stroke-linejoin:round;stroke-miterlimit:10;" width="22.003" height="11.002"/>
			
				<rect x="354.787" y="223.949" style="fill:none;stroke:#B2B2B2;stroke-linecap:round;stroke-linejoin:round;stroke-miterlimit:10;" width="22.003" height="11.002"/>
		</g>
		<g>
			
				<rect x="281.538" y="65.03" style="fill:none;stroke:#B2B2B2;stroke-linecap:round;stroke-linejoin:round;stroke-miterlimit:10;" width="103.31" height="135.75"/>
			<path style="fill:none;stroke:#B2B2B2;stroke-linecap:round;stroke-linejoin:round;stroke-miterlimit:10;" d="M348.418,65.03
				h-21.19l-45.69,45.69v35.1l45.37-45.37l-0.34-13.57L348.418,65.03z M384.848,65.03h-1.33l-82.11,82.11l16.56,16.55l-36.43,36.43
				v0.66h26.49l44.04-44.04h-18.87l-13.08-13.08l64.73-64.73V65.03z M384.848,93.17l-51.82,51.82l14.73,0.16l37.09,37.09v-16.89
				l-32.62-32.61l32.62-32.62V93.17z M359.018,165.68l-35.1,35.1h25.17l22.51-22.52L359.018,165.68z M281.538,65.03v15.23
				l15.23-15.23H281.538z"/>
		</g>
	</g>
</g>
<g id="Room_1">
	<g style="opacity:0.3;">
		<g>
			
				<rect x="90" y="47.34" style="fill:none;stroke:#000000;stroke-linecap:round;stroke-linejoin:round;stroke-miterlimit:10;" width="153" height="195.319"/>
			
				<rect x="96" y="55" style="fill:none;stroke:#000000;stroke-linecap:round;stroke-linejoin:round;stroke-miterlimit:10;" width="141" height="180"/>
			
				<rect x="96" y="144" style="fill:none;stroke:#000000;stroke-linecap:round;stroke-linejoin:round;stroke-miterlimit:10;" width="141" height="10"/>
		</g>
		<g>
			
				<line style="fill:none;stroke:#000000;stroke-linecap:round;stroke-linejoin:round;stroke-miterlimit:10;" x1="231.232" y1="64.495" x2="201.963" y2="93.765"/>
			
				<line style="fill:none;stroke:#000000;stroke-linecap:round;stroke-linejoin:round;stroke-miterlimit:10;" x1="192.107" y1="113.178" x2="187.627" y2="117.658"/>
			
				<line style="fill:none;stroke:#000000;stroke-linecap:round;stroke-linejoin:round;stroke-miterlimit:10;" x1="210.923" y1="94.362" x2="196.885" y2="108.4"/>
			
				<line style="fill:none;stroke:#000000;stroke-linecap:round;stroke-linejoin:round;stroke-miterlimit:10;" x1="117.738" y1="65.69" x2="108.48" y2="74.949"/>
			
				<line style="fill:none;stroke:#000000;stroke-linecap:round;stroke-linejoin:round;stroke-miterlimit:10;" x1="204.651" y1="189.637" x2="199.573" y2="194.715"/>
			
				<line style="fill:none;stroke:#000000;stroke-linecap:round;stroke-linejoin:round;stroke-miterlimit:10;" x1="224.661" y1="169.627" x2="209.131" y2="185.157"/>
		</g>
		<g>
			
				<line style="fill:none;stroke:#000000;stroke-linecap:round;stroke-linejoin:round;stroke-miterlimit:10;" x1="231.232" y1="161.495" x2="201.963" y2="190.765"/>
			
				<line style="fill:none;stroke:#000000;stroke-linecap:round;stroke-linejoin:round;stroke-miterlimit:10;" x1="192.107" y1="210.178" x2="187.627" y2="214.658"/>
			
				<line style="fill:none;stroke:#000000;stroke-linecap:round;stroke-linejoin:round;stroke-miterlimit:10;" x1="210.923" y1="191.362" x2="196.885" y2="205.4"/>
			
				<line style="fill:none;stroke:#000000;stroke-linecap:round;stroke-linejoin:round;stroke-miterlimit:10;" x1="117.738" y1="162.69" x2="108.48" y2="171.949"/>
			
				<line style="fill:none;stroke:#000000;stroke-linecap:round;stroke-linejoin:round;stroke-miterlimit:10;" x1="204.651" y1="286.637" x2="199.573" y2="291.715"/>
			
				<line style="fill:none;stroke:#000000;stroke-linecap:round;stroke-linejoin:round;stroke-miterlimit:10;" x1="224.661" y1="266.627" x2="209.131" y2="282.157"/>
		</g>
	</g>
</g>
<g id="Plant_2">
	<g>
		<g>
			<path style="fill:#92E3A9;stroke:#000000;stroke-linecap:round;stroke-linejoin:round;stroke-miterlimit:10;" d="M407.339,437.24
				c0,0-1.026-12.309,0-19.832c1.026-7.522,5.813-10.258,6.155-13.677c0.342-3.419-1.71-6.839,0.342-10.258
				c2.052-3.419,6.155-7.181,6.155-7.181s-2.735,5.129-0.684,9.232c2.051,4.103,5.231,8.549,3.077,11.967
				c-2.153,3.419-4.445,6.839-3.761,9.574c0.684,2.735,4.445,2.052,3.761,8.206c-0.684,6.155-2.394,8.548-2.394,8.548l0.342,3.419
				l-11.626-0.342"/>
			<path style="fill:#92E3A9;stroke:#000000;stroke-linecap:round;stroke-linejoin:round;stroke-miterlimit:10;" d="M406.437,437.1
				c0,0,2.431-2.546-1.51-6.401c-2.545-2.49-5.046-6.189-5.165-10.033c-0.058-1.889,0.796-3.39,0.216-5.156
				c-0.633-1.927-2.6-3.151-3.134-5.296c-1.035-4.157,1.741-8.027,2.086-9.35c0.345-1.323,0.014-1.41-1.855-5.078
				c-1.87-3.668-1.754-6.819-1.754-6.819s0.791,3.74,5.092,4.862c4.301,1.122,6.761,3.884,6.458,9.106
				c-0.302,5.222-0.648,6.545,2.994,7.495c5.723,1.495,5.157,5.431,4.51,10.228c-0.406,3.007-0.566,3.794,1.217,5.969
				c1.451,1.769,3.692,1.475,1.936,4.532c-1.942,3.38,0.848,6.229-2.561,7.106C411.558,439.143,406.437,437.1,406.437,437.1z"/>
			<path style="fill:#92E3A9;stroke:#000000;stroke-linecap:round;stroke-linejoin:round;stroke-miterlimit:10;" d="
				M420.856,437.666c0,0-2.359-2.613,1.689-6.356c2.614-2.417,5.218-6.045,5.445-9.883c0.112-1.886-0.7-3.411-0.071-5.16
				c0.687-1.909,2.688-3.077,3.282-5.206c1.152-4.127-1.515-8.073-1.823-9.405c-0.308-1.333,0.025-1.409,1.997-5.024
				c1.972-3.614,1.945-6.767,1.945-6.767s-0.896,3.716-5.227,4.717c-4.331,1.001-6.867,3.693-6.712,8.921
				c0.156,5.228,0.464,6.561-3.204,7.408c-5.763,1.333-5.308,5.284-4.796,10.097c0.321,3.017,0.459,3.809-1.385,5.932
				c-1.5,1.728-3.732,1.37-2.062,4.475c1.846,3.434-1.023,6.202,2.36,7.175C415.68,439.564,420.856,437.666,420.856,437.666z"/>
			<path style="fill:#FFFFFF;stroke:#000000;stroke-linecap:round;stroke-linejoin:round;stroke-miterlimit:10;" d="M428.3,434.5
				v17.51c0,0.33-0.01,0.66-0.05,0.99c-0.08,0.93-0.27,1.83-0.58,2.67c-1.51,4.28-5.58,7.34-10.37,7.34h-5.97
				c-4.79,0-8.86-3.06-10.37-7.34c-0.31-0.84-0.5-1.74-0.58-2.67c-0.04-0.33-0.05-0.66-0.05-0.99V434.5H428.3z"/>
		</g>
		
			<rect x="400.33" y="447" style="fill:#263238;stroke:#000000;stroke-linecap:round;stroke-linejoin:round;stroke-miterlimit:10;" width="27.97" height="0.662"/>
		<path style="fill:#263238;stroke:#000000;stroke-linecap:round;stroke-linejoin:round;stroke-miterlimit:10;" d="M428.25,451.394
			c-0.08,0.93-0.27,1.83-0.58,2.67h-26.71c-0.31-0.84-0.5-1.74-0.58-2.67H428.25z"/>
	</g>
</g>
<g id="Plant_1">
	<g>
		<g>
			
				<line style="fill:none;stroke:#263238;stroke-linecap:round;stroke-linejoin:round;stroke-miterlimit:10;" x1="27.095" y1="170.448" x2="39.742" y2="291.625"/>
			<g>
				<g>
					
						<line style="fill:none;stroke:#263238;stroke-linecap:round;stroke-linejoin:round;stroke-miterlimit:10;" x1="37.932" y1="274.485" x2="32.298" y2="268.561"/>
					<path style="fill:#92E3A9;stroke:#263238;stroke-linecap:round;stroke-linejoin:round;stroke-miterlimit:10;" d="
						M34.157,270.497c0,0,0.175-2.859-2.435-5.19c-1.57-1.402-9.836-4.88-10.62-1.969C20.248,266.505,28.708,272.723,34.157,270.497
						z"/>
					
						<line style="fill:none;stroke:#263238;stroke-linecap:round;stroke-linejoin:round;stroke-miterlimit:10;" x1="34.157" y1="270.497" x2="26.288" y2="265.594"/>
				</g>
				<g>
					
						<line style="fill:none;stroke:#263238;stroke-linecap:round;stroke-linejoin:round;stroke-miterlimit:10;" x1="39.333" y1="287.843" x2="33.833" y2="283.269"/>
					<path style="fill:#92E3A9;stroke:#263238;stroke-linecap:round;stroke-linejoin:round;stroke-miterlimit:10;" d="
						M35.692,285.205c0,0,0.175-2.859-2.435-5.19c-1.57-1.403-9.836-4.88-10.62-1.969C21.783,281.213,30.243,287.431,35.692,285.205
						z"/>
					
						<line style="fill:none;stroke:#263238;stroke-linecap:round;stroke-linejoin:round;stroke-miterlimit:10;" x1="35.692" y1="285.205" x2="27.823" y2="280.302"/>
				</g>
				<g>
					
						<line style="fill:none;stroke:#263238;stroke-linecap:round;stroke-linejoin:round;stroke-miterlimit:10;" x1="34.109" y1="237.67" x2="28.552" y2="232.671"/>
					<path style="fill:#92E3A9;stroke:#263238;stroke-linecap:round;stroke-linejoin:round;stroke-miterlimit:10;" d="
						M30.411,234.607c0,0,0.175-2.859-2.435-5.19c-1.57-1.403-9.836-4.88-10.62-1.969C16.503,230.615,24.963,236.833,30.411,234.607
						z"/>
					
						<line style="fill:none;stroke:#263238;stroke-linecap:round;stroke-linejoin:round;stroke-miterlimit:10;" x1="30.411" y1="234.607" x2="22.543" y2="229.704"/>
				</g>
				<g>
					
						<line style="fill:none;stroke:#263238;stroke-linecap:round;stroke-linejoin:round;stroke-miterlimit:10;" x1="35.658" y1="253.31" x2="30.087" y2="247.379"/>
					<path style="fill:#92E3A9;stroke:#263238;stroke-linecap:round;stroke-linejoin:round;stroke-miterlimit:10;" d="
						M31.946,249.315c0,0,0.175-2.859-2.435-5.19c-1.571-1.403-9.836-4.88-10.62-1.969
						C18.038,245.323,26.498,251.541,31.946,249.315z"/>
					
						<line style="fill:none;stroke:#263238;stroke-linecap:round;stroke-linejoin:round;stroke-miterlimit:10;" x1="31.946" y1="249.315" x2="24.078" y2="244.412"/>
				</g>
				<g>
					
						<line style="fill:none;stroke:#263238;stroke-linecap:round;stroke-linejoin:round;stroke-miterlimit:10;" x1="31.632" y1="214.46" x2="26.059" y2="208.779"/>
					<path style="fill:#92E3A9;stroke:#263238;stroke-linecap:round;stroke-linejoin:round;stroke-miterlimit:10;" d="
						M27.918,210.715c0,0,0.175-2.859-2.435-5.19c-1.57-1.402-9.836-4.88-10.62-1.969C14.009,206.723,22.469,212.941,27.918,210.715
						z"/>
					
						<line style="fill:none;stroke:#263238;stroke-linecap:round;stroke-linejoin:round;stroke-miterlimit:10;" x1="27.918" y1="210.715" x2="20.049" y2="205.812"/>
				</g>
				<g>
					
						<line style="fill:none;stroke:#263238;stroke-linecap:round;stroke-linejoin:round;stroke-miterlimit:10;" x1="28.949" y1="188.91" x2="23.555" y2="184.783"/>
					<path style="fill:#92E3A9;stroke:#263238;stroke-linecap:round;stroke-linejoin:round;stroke-miterlimit:10;" d="
						M25.414,186.719c0,0,0.175-2.859-2.435-5.19c-1.571-1.403-9.836-4.88-10.62-1.969
						C11.505,182.727,19.965,188.945,25.414,186.719z"/>
					
						<line style="fill:none;stroke:#263238;stroke-linecap:round;stroke-linejoin:round;stroke-miterlimit:10;" x1="25.414" y1="186.719" x2="17.545" y2="181.816"/>
				</g>
				<g>
					
						<line style="fill:none;stroke:#263238;stroke-linecap:round;stroke-linejoin:round;stroke-miterlimit:10;" x1="37.388" y1="266.321" x2="42.041" y2="258.735"/>
					<path style="fill:#92E3A9;stroke:#263238;stroke-linecap:round;stroke-linejoin:round;stroke-miterlimit:10;" d="
						M40.621,261.013c0,0-0.762-2.761,1.311-5.581c1.247-1.697,8.616-6.805,9.985-4.119
						C53.406,254.235,46.412,262.066,40.621,261.013z"/>
					
						<line style="fill:none;stroke:#263238;stroke-linecap:round;stroke-linejoin:round;stroke-miterlimit:10;" x1="40.621" y1="261.013" x2="46.157" y2="255.818"/>
				</g>
				<g>
					
						<line style="fill:none;stroke:#263238;stroke-linecap:round;stroke-linejoin:round;stroke-miterlimit:10;" x1="33.349" y1="227.617" x2="38.001" y2="220.031"/>
					<path style="fill:#92E3A9;stroke:#263238;stroke-linecap:round;stroke-linejoin:round;stroke-miterlimit:10;" d="
						M36.582,222.309c0,0-0.762-2.761,1.311-5.581c1.247-1.697,7.012-5.946,8.381-3.26C47.763,216.39,42.373,223.362,36.582,222.309
						z"/>
					
						<line style="fill:none;stroke:#263238;stroke-linecap:round;stroke-linejoin:round;stroke-miterlimit:10;" x1="36.582" y1="222.309" x2="43.668" y2="215.537"/>
				</g>
				<g>
					
						<line style="fill:none;stroke:#263238;stroke-linecap:round;stroke-linejoin:round;stroke-miterlimit:10;" x1="31.574" y1="210.608" x2="36.226" y2="203.022"/>
					<path style="fill:#92E3A9;stroke:#263238;stroke-linecap:round;stroke-linejoin:round;stroke-miterlimit:10;" d="M34.807,205.3
						c0,0-0.762-2.761,1.311-5.581c1.247-1.697,8.616-6.806,9.985-4.119C47.592,198.522,40.598,206.352,34.807,205.3z"/>
					
						<line style="fill:none;stroke:#263238;stroke-linecap:round;stroke-linejoin:round;stroke-miterlimit:10;" x1="34.807" y1="205.3" x2="41.893" y2="198.528"/>
				</g>
				<g>
					
						<line style="fill:none;stroke:#263238;stroke-linecap:round;stroke-linejoin:round;stroke-miterlimit:10;" x1="28.972" y1="185.673" x2="33.624" y2="178.086"/>
					<path style="fill:#92E3A9;stroke:#263238;stroke-linecap:round;stroke-linejoin:round;stroke-miterlimit:10;" d="
						M32.205,180.365c0,0-0.762-2.761,1.311-5.581c1.247-1.697,8.616-6.805,9.985-4.119
						C44.989,173.586,37.995,181.417,32.205,180.365z"/>
					
						<line style="fill:none;stroke:#263238;stroke-linecap:round;stroke-linejoin:round;stroke-miterlimit:10;" x1="32.205" y1="180.365" x2="39.29" y2="173.592"/>
					<path style="fill:#92E3A9;stroke:#263238;stroke-linecap:round;stroke-linejoin:round;stroke-miterlimit:10;" d="
						M26.982,169.73c0,0-0.762-2.761,1.311-5.581c1.247-1.697,8.616-6.806,9.985-4.119C39.766,162.952,32.772,170.783,26.982,169.73
						z"/>
					
						<line style="fill:none;stroke:#263238;stroke-linecap:round;stroke-linejoin:round;stroke-miterlimit:10;" x1="26.982" y1="169.73" x2="34.067" y2="162.958"/>
					<path style="fill:#92E3A9;stroke:#263238;stroke-linecap:round;stroke-linejoin:round;stroke-miterlimit:10;" d="
						M27.392,170.022c0,0-2.826,0.468-5.413-1.889c-1.557-1.418-5.864-9.282-3.049-10.362
						C21.992,156.598,29.046,164.374,27.392,170.022z"/>
					
						<line style="fill:none;stroke:#263238;stroke-linecap:round;stroke-linejoin:round;stroke-miterlimit:10;" x1="27.392" y1="170.022" x2="21.4" y2="162.266"/>
				</g>
			</g>
		</g>
		
			<line style="fill:none;stroke:#263238;stroke-linecap:round;stroke-linejoin:round;stroke-miterlimit:10;" x1="47.313" y1="135.594" x2="47.313" y2="291.33"/>
		<g>
			
				<line style="fill:none;stroke:#263238;stroke-linecap:round;stroke-linejoin:round;stroke-miterlimit:10;" x1="62.693" y1="188.258" x2="51.935" y2="291.931"/>
			<g>
				<g>
					
						<line style="fill:none;stroke:#263238;stroke-linecap:round;stroke-linejoin:round;stroke-miterlimit:10;" x1="52.107" y1="291.168" x2="49.003" y2="287.618"/>
					<path style="fill:#92E3A9;stroke:#263238;stroke-linecap:round;stroke-linejoin:round;stroke-miterlimit:10;" d="
						M49.003,287.618c0,0,0.76-2.761-1.314-5.58c-1.248-1.696-8.62-6.8-9.987-4.113C36.215,280.847,43.213,288.674,49.003,287.618z"
						/>
					
						<line style="fill:none;stroke:#263238;stroke-linecap:round;stroke-linejoin:round;stroke-miterlimit:10;" x1="49.003" y1="287.618" x2="42.313" y2="281.199"/>
				</g>
				<g>
					
						<line style="fill:none;stroke:#263238;stroke-linecap:round;stroke-linejoin:round;stroke-miterlimit:10;" x1="55.899" y1="254.243" x2="51.291" y2="250.393"/>
					<path style="fill:#92E3A9;stroke:#263238;stroke-linecap:round;stroke-linejoin:round;stroke-miterlimit:10;" d="
						M52.728,251.725c0,0,0.76-2.761-1.314-5.58c-1.248-1.696-8.62-6.801-9.987-4.113C39.939,244.955,46.938,252.781,52.728,251.725
						z"/>
					
						<line style="fill:none;stroke:#263238;stroke-linecap:round;stroke-linejoin:round;stroke-miterlimit:10;" x1="52.728" y1="251.725" x2="46.037" y2="245.307"/>
				</g>
				<g>
					
						<line style="fill:none;stroke:#263238;stroke-linecap:round;stroke-linejoin:round;stroke-miterlimit:10;" x1="54.438" y1="271.741" x2="49.781" y2="264.157"/>
					<path style="fill:#92E3A9;stroke:#263238;stroke-linecap:round;stroke-linejoin:round;stroke-miterlimit:10;" d="
						M51.201,266.434c0,0,0.76-2.761-1.315-5.58c-1.248-1.696-8.62-6.8-9.987-4.113C38.413,259.664,45.411,267.49,51.201,266.434z"
						/>
					
						<line style="fill:none;stroke:#263238;stroke-linecap:round;stroke-linejoin:round;stroke-miterlimit:10;" x1="51.201" y1="266.434" x2="44.511" y2="260.016"/>
				</g>
				<g>
					
						<line style="fill:none;stroke:#263238;stroke-linecap:round;stroke-linejoin:round;stroke-miterlimit:10;" x1="58.232" y1="230.677" x2="53.786" y2="225.555"/>
					<path style="fill:#92E3A9;stroke:#263238;stroke-linecap:round;stroke-linejoin:round;stroke-miterlimit:10;" d="
						M55.207,227.832c0,0,0.76-2.761-1.314-5.58c-1.248-1.696-8.62-6.8-9.987-4.113C42.418,221.061,49.417,228.888,55.207,227.832z"
						/>
					
						<line style="fill:none;stroke:#263238;stroke-linecap:round;stroke-linejoin:round;stroke-miterlimit:10;" x1="55.207" y1="227.832" x2="48.516" y2="221.414"/>
				</g>
				<g>
					
						<line style="fill:none;stroke:#263238;stroke-linecap:round;stroke-linejoin:round;stroke-miterlimit:10;" x1="60.566" y1="208.218" x2="56.277" y2="201.557"/>
					<path style="fill:#92E3A9;stroke:#263238;stroke-linecap:round;stroke-linejoin:round;stroke-miterlimit:10;" d="
						M57.697,203.834c0,0,0.76-2.761-1.315-5.58c-1.248-1.696-8.62-6.8-9.987-4.113C44.909,197.064,51.907,204.89,57.697,203.834z"
						/>
					
						<line style="fill:none;stroke:#263238;stroke-linecap:round;stroke-linejoin:round;stroke-miterlimit:10;" x1="57.697" y1="203.834" x2="51.007" y2="197.416"/>
				</g>
				<g>
					
						<line style="fill:none;stroke:#263238;stroke-linecap:round;stroke-linejoin:round;stroke-miterlimit:10;" x1="53.025" y1="284.197" x2="59.14" y2="277.73"/>
					<path style="fill:#92E3A9;stroke:#263238;stroke-linecap:round;stroke-linejoin:round;stroke-miterlimit:10;" d="
						M57.282,279.668c0,0-0.177-2.859,2.432-5.191c1.57-1.404,9.833-4.885,10.619-1.975
						C71.188,275.667,62.732,281.89,57.282,279.668z"/>
					
						<line style="fill:none;stroke:#263238;stroke-linecap:round;stroke-linejoin:round;stroke-miterlimit:10;" x1="57.282" y1="279.668" x2="65.61" y2="274.5"/>
				</g>
				<g>
					
						<line style="fill:none;stroke:#263238;stroke-linecap:round;stroke-linejoin:round;stroke-miterlimit:10;" x1="57.041" y1="245.49" x2="63.156" y2="239.024"/>
					<path style="fill:#92E3A9;stroke:#263238;stroke-linecap:round;stroke-linejoin:round;stroke-miterlimit:10;" d="
						M61.298,240.961c0,0-0.177-2.858,2.432-5.191c1.57-1.404,9.833-4.885,10.619-1.975
						C75.204,236.96,66.748,243.184,61.298,240.961z"/>
					
						<line style="fill:none;stroke:#263238;stroke-linecap:round;stroke-linejoin:round;stroke-miterlimit:10;" x1="61.298" y1="240.961" x2="69.626" y2="235.793"/>
				</g>
				<g>
					
						<line style="fill:none;stroke:#263238;stroke-linecap:round;stroke-linejoin:round;stroke-miterlimit:10;" x1="58.806" y1="228.48" x2="64.921" y2="222.014"/>
					<path style="fill:#92E3A9;stroke:#263238;stroke-linecap:round;stroke-linejoin:round;stroke-miterlimit:10;" d="
						M63.063,223.951c0,0-0.177-2.859,2.432-5.191c1.57-1.404,9.833-4.886,10.619-1.975
						C76.97,219.951,68.513,226.173,63.063,223.951z"/>
					
						<line style="fill:none;stroke:#263238;stroke-linecap:round;stroke-linejoin:round;stroke-miterlimit:10;" x1="63.063" y1="223.951" x2="71.391" y2="218.783"/>
				</g>
				<g>
					
						<line style="fill:none;stroke:#263238;stroke-linecap:round;stroke-linejoin:round;stroke-miterlimit:10;" x1="61.324" y1="202.268" x2="67.509" y2="197.077"/>
					<path style="fill:#92E3A9;stroke:#263238;stroke-linecap:round;stroke-linejoin:round;stroke-miterlimit:10;" d="
						M65.651,199.014c0,0-0.177-2.859,2.432-5.191c1.57-1.404,9.833-4.886,10.619-1.975
						C79.557,195.014,71.101,201.237,65.651,199.014z"/>
					
						<line style="fill:#92E3A9;stroke:#263238;stroke-linecap:round;stroke-linejoin:round;stroke-miterlimit:10;" x1="65.651" y1="199.014" x2="73.979" y2="193.846"/>
					<path style="fill:#92E3A9;stroke:#263238;stroke-linecap:round;stroke-linejoin:round;stroke-miterlimit:10;" d="
						M62.729,187.532c0,0-0.177-2.859,2.432-5.191c1.57-1.404,9.833-4.885,10.619-1.975
						C76.635,183.531,68.179,189.755,62.729,187.532z"/>
					
						<line style="fill:none;stroke:#263238;stroke-linecap:round;stroke-linejoin:round;stroke-miterlimit:10;" x1="62.729" y1="187.532" x2="71.057" y2="182.364"/>
					<path style="fill:#92E3A9;stroke:#263238;stroke-linecap:round;stroke-linejoin:round;stroke-miterlimit:10;" d="
						M63.071,187.903c0,0-2.861-0.124-4.908-2.963c-1.231-1.708-3.827-10.291-0.85-10.768
						C60.551,173.654,65.853,182.716,63.071,187.903z"/>
					
						<line style="fill:none;stroke:#263238;stroke-linecap:round;stroke-linejoin:round;stroke-miterlimit:10;" x1="63.071" y1="187.903" x2="58.805" y2="179.079"/>
				</g>
			</g>
		</g>
		<g>
			<g>
				
					<line style="fill:none;stroke:#263238;stroke-linecap:round;stroke-linejoin:round;stroke-miterlimit:10;" x1="47.091" y1="274.252" x2="42.029" y2="267.49"/>
				<path style="fill:#92E3A9;stroke:#263238;stroke-linecap:round;stroke-linejoin:round;stroke-miterlimit:10;" d="
					M43.677,269.608c0,0,0.471-2.825-1.883-5.415c-1.416-1.558-9.276-5.874-10.358-3.06
					C30.258,264.194,38.027,271.256,43.677,269.608z"/>
				
					<line style="fill:none;stroke:#263238;stroke-linecap:round;stroke-linejoin:round;stroke-miterlimit:10;" x1="43.677" y1="269.608" x2="36.36" y2="263.915"/>
			</g>
			<g>
				
					<line style="fill:none;stroke:#263238;stroke-linecap:round;stroke-linejoin:round;stroke-miterlimit:10;" x1="47.267" y1="241.633" x2="42.029" y2="236.754"/>
				<path style="fill:#92E3A9;stroke:#263238;stroke-linecap:round;stroke-linejoin:round;stroke-miterlimit:10;" d="
					M43.677,238.873c0,0,0.471-2.825-1.883-5.415c-1.416-1.558-9.276-5.874-10.358-3.061
					C30.258,233.458,38.027,240.521,43.677,238.873z"/>
				
					<line style="fill:none;stroke:#263238;stroke-linecap:round;stroke-linejoin:round;stroke-miterlimit:10;" x1="43.677" y1="238.873" x2="36.36" y2="233.179"/>
			</g>
			<g>
				
					<line style="fill:none;stroke:#263238;stroke-linecap:round;stroke-linejoin:round;stroke-miterlimit:10;" x1="47.444" y1="207.732" x2="42.029" y2="200.669"/>
				<path style="fill:#92E3A9;stroke:#263238;stroke-linecap:round;stroke-linejoin:round;stroke-miterlimit:10;" d="
					M43.677,202.788c0,0,0.471-2.825-1.883-5.415c-1.416-1.558-9.276-5.874-10.358-3.061
					C30.258,197.374,38.027,204.436,43.677,202.788z"/>
				
					<line style="fill:none;stroke:#263238;stroke-linecap:round;stroke-linejoin:round;stroke-miterlimit:10;" x1="43.677" y1="202.788" x2="36.36" y2="197.094"/>
			</g>
			<g>
				
					<line style="fill:none;stroke:#263238;stroke-linecap:round;stroke-linejoin:round;stroke-miterlimit:10;" x1="47.091" y1="181.21" x2="42.029" y2="176.648"/>
				<path style="fill:#92E3A9;stroke:#263238;stroke-linecap:round;stroke-linejoin:round;stroke-miterlimit:10;" d="
					M43.677,178.766c0,0,0.471-2.825-1.883-5.415c-1.416-1.558-9.276-5.874-10.358-3.061
					C30.258,173.352,38.027,180.415,43.677,178.766z"/>
				
					<line style="fill:none;stroke:#263238;stroke-linecap:round;stroke-linejoin:round;stroke-miterlimit:10;" x1="43.677" y1="178.766" x2="36.36" y2="173.073"/>
			</g>
			<g>
				
					<line style="fill:none;stroke:#263238;stroke-linecap:round;stroke-linejoin:round;stroke-miterlimit:10;" x1="47.382" y1="157.177" x2="42.132" y2="153.327"/>
				<path style="fill:#92E3A9;stroke:#263238;stroke-linecap:round;stroke-linejoin:round;stroke-miterlimit:10;" d="M43.677,154.64
					c0,0,0.471-2.825-1.883-5.415c-1.416-1.558-9.276-5.874-10.358-3.061C30.258,149.225,38.027,156.288,43.677,154.64z"/>
				
					<line style="fill:none;stroke:#263238;stroke-linecap:round;stroke-linejoin:round;stroke-miterlimit:10;" x1="43.677" y1="154.64" x2="36.36" y2="148.946"/>
			</g>
			<g>
				
					<line style="fill:none;stroke:#263238;stroke-linecap:round;stroke-linejoin:round;stroke-miterlimit:10;" x1="48.374" y1="282.418" x2="52.739" y2="276.875"/>
				<path style="fill:#92E3A9;stroke:#263238;stroke-linecap:round;stroke-linejoin:round;stroke-miterlimit:10;" d="
					M51.091,278.994c0,0-0.471-2.825,1.883-5.415c1.417-1.558,9.276-5.874,10.358-3.06C64.51,273.579,56.741,280.642,51.091,278.994
					z"/>
				
					<line style="fill:none;stroke:#263238;stroke-linecap:round;stroke-linejoin:round;stroke-miterlimit:10;" x1="51.091" y1="278.994" x2="58.841" y2="272.994"/>
			</g>
			<g>
				
					<line style="fill:none;stroke:#263238;stroke-linecap:round;stroke-linejoin:round;stroke-miterlimit:10;" x1="47.324" y1="235.055" x2="52.739" y2="227.992"/>
				<path style="fill:#92E3A9;stroke:#263238;stroke-linecap:round;stroke-linejoin:round;stroke-miterlimit:10;" d="
					M51.091,230.111c0,0-0.471-2.825,1.883-5.415c1.417-1.558,9.276-5.874,10.358-3.061
					C64.51,224.697,56.741,231.759,51.091,230.111z"/>
				
					<line style="fill:none;stroke:#263238;stroke-linecap:round;stroke-linejoin:round;stroke-miterlimit:10;" x1="51.091" y1="230.111" x2="58.841" y2="224.111"/>
			</g>
			<g>
				
					<line style="fill:none;stroke:#263238;stroke-linecap:round;stroke-linejoin:round;stroke-miterlimit:10;" x1="47.324" y1="210.928" x2="52.739" y2="203.866"/>
				<path style="fill:#92E3A9;stroke:#263238;stroke-linecap:round;stroke-linejoin:round;stroke-miterlimit:10;" d="
					M51.091,205.985c0,0-0.471-2.825,1.883-5.415c1.417-1.558,9.276-5.874,10.358-3.061C64.51,200.57,56.741,207.633,51.091,205.985
					z"/>
				
					<line style="fill:none;stroke:#263238;stroke-linecap:round;stroke-linejoin:round;stroke-miterlimit:10;" x1="51.091" y1="205.985" x2="58.841" y2="199.984"/>
			</g>
			<g>
				
					<line style="fill:none;stroke:#263238;stroke-linecap:round;stroke-linejoin:round;stroke-miterlimit:10;" x1="47.324" y1="179.039" x2="52.739" y2="171.977"/>
				<path style="fill:#92E3A9;stroke:#263238;stroke-linecap:round;stroke-linejoin:round;stroke-miterlimit:10;" d="
					M51.091,174.095c0,0-0.471-2.825,1.883-5.414c1.417-1.558,9.276-5.874,10.358-3.061
					C64.51,168.681,56.741,175.743,51.091,174.095z"/>
				
					<line style="fill:none;stroke:#263238;stroke-linecap:round;stroke-linejoin:round;stroke-miterlimit:10;" x1="51.091" y1="174.095" x2="58.841" y2="168.095"/>
			</g>
			<g>
				
					<line style="fill:none;stroke:#263238;stroke-linecap:round;stroke-linejoin:round;stroke-miterlimit:10;" x1="47.557" y1="151.518" x2="52.866" y2="147.377"/>
				<path style="fill:#92E3A9;stroke:#263238;stroke-linecap:round;stroke-linejoin:round;stroke-miterlimit:10;" d="
					M51.091,149.025c0,0-0.471-2.825,1.883-5.415c1.417-1.558,9.276-5.874,10.358-3.061C64.51,143.61,56.741,150.673,51.091,149.025
					z"/>
				
					<line style="fill:none;stroke:#263238;stroke-linecap:round;stroke-linejoin:round;stroke-miterlimit:10;" x1="51.091" y1="149.025" x2="58.841" y2="143.025"/>
				<path style="fill:#92E3A9;stroke:#263238;stroke-linecap:round;stroke-linejoin:round;stroke-miterlimit:10;" d="M47,137.906
					c0,0-0.471-2.825,1.883-5.415c1.416-1.558,9.276-5.874,10.358-3.06C60.419,132.491,52.65,139.554,47,137.906z"/>
				
					<line style="fill:none;stroke:#263238;stroke-linecap:round;stroke-linejoin:round;stroke-miterlimit:10;" x1="47" y1="137.906" x2="54.75" y2="131.905"/>
				<path style="fill:#92E3A9;stroke:#263238;stroke-linecap:round;stroke-linejoin:round;stroke-miterlimit:10;" d="
					M47.378,138.239c0,0-2.859,0.172-5.187-2.441c-1.401-1.572-4.869-9.841-1.957-10.622
					C43.4,124.326,49.609,132.793,47.378,138.239z"/>
				
					<line style="fill:none;stroke:#263238;stroke-linecap:round;stroke-linejoin:round;stroke-miterlimit:10;" x1="47.378" y1="138.239" x2="42.224" y2="129.902"/>
			</g>
		</g>
	</g>
</g>
<g id="Bricks">
</g>
<g id="Character_2_1_">
	<g>
		<g>
			<path style="fill:#92E3A9;stroke:#263238;stroke-linecap:round;stroke-linejoin:round;stroke-miterlimit:10;" d="
				M411.813,187.919c0,0-23.447,11.206-27.983,18.01c-1.969,2.953-15.343,56.263-15.343,56.263l-8.842,7.368l13.558,24.031h80.463
				c0,0,5.895-82.978,4.716-87.104c-1.179-4.126-29.179-16.21-32.421-17.684C422.718,187.329,414.466,186.445,411.813,187.919z"/>
			<polyline style="fill:none;stroke:#263238;stroke-miterlimit:10;" points="401.162,248.31 416.117,260.664 404.276,253.984 			
				"/>
			<line style="fill:none;stroke:#263238;stroke-miterlimit:10;" x1="395.167" y1="243.357" x2="398.792" y2="246.352"/>
			<g>
				<path style="fill:#FFFFFF;stroke:#263238;stroke-linecap:round;stroke-linejoin:round;stroke-miterlimit:10;" d="
					M316.049,279.961c0,0-2.779,0.417-3.891,2.223c-1.112,1.807-3.196,6.948-2.223,7.365c0.973,0.417,1.667-1.112,2.362-2.223
					c0.695-1.112,1.667-2.779,1.667-2.779l2.223-0.417L316.049,279.961z"/>
				<path style="fill:#FFFFFF;stroke:#263238;stroke-linecap:round;stroke-linejoin:round;stroke-miterlimit:10;" d="
					M319.94,277.321c0,0-3.196-0.278-4.03,1.112c-0.834,1.39-2.501,10.561-2.362,11.673c0.139,1.112,1.529,1.667,2.64-0.278
					c1.112-1.946,3.474-10.561,3.474-10.561L319.94,277.321z"/>
				<path style="fill:#FFFFFF;stroke:#263238;stroke-linecap:round;stroke-linejoin:round;stroke-miterlimit:10;" d="
					M326.471,277.182c0,0-4.725-2.223-6.67-1.806c-1.945,0.417-4.725,14.591-4.308,15.285c0.417,0.695,2.362,0.834,3.057-0.278
					c0.695-1.112,4.725-7.921,5.836-9.588C325.498,279.128,326.471,277.182,326.471,277.182z"/>
				<path style="fill:#FFFFFF;stroke:#263238;stroke-linecap:round;stroke-linejoin:round;stroke-miterlimit:10;" d="
					M374.965,284.449c0,0-1.803-12.317-5.107-17.124c-3.305-4.807-5.736-0.664-10.731,1.936c-3.038,1.581-21.113,9.179-22.014,9.479
					c-0.901,0.3-8.712-4.206-10.214-3.004c-1.502,1.202-7.21,8.412-8.412,12.317c-1.202,3.905,1.802,4.206,3.004,3.004
					c1.202-1.202,4.807-6.91,6.309-8.111c1.502-1.202,5.107,2.704,5.107,2.704s-5.408,2.704-7.21,3.905
					c-1.803,1.202,0.901,1.802,3.905,1.802c3.004,0,6.91-1.202,8.712-2.103c1.802-0.901,3.004-1.502,3.004-1.502
					S365.051,287.753,374.965,284.449z"/>
			</g>
			<path style="fill:#263238;stroke:#263238;stroke-linecap:round;stroke-linejoin:round;stroke-miterlimit:10;" d="
				M413.582,110.108c0,0-23.284,10.021-25.347,16.8c-2.063,6.779,2.358,7.663,2.947,11.2c0.589,3.537-15.621,20.042-9.137,30.358
				c6.484,10.316,41.852,12.968,56.589,10.316c14.737-2.653,24.168-12.968,23.284-24.758c-0.884-11.789-7.958-17.389-16.8-30.652
				C436.276,110.108,419.771,108.045,413.582,110.108z"/>
			<g>
				<path style="fill:#FFFFFF;stroke:#263238;stroke-linecap:round;stroke-linejoin:round;stroke-miterlimit:10;" d="
					M396.782,152.55c0,0-3.831,0.295-3.831,3.242c0,2.947,3.831,9.137,5.6,8.842C400.319,164.34,396.782,152.55,396.782,152.55z"/>
				<g>
					<path style="fill:#FFFFFF;stroke:#263238;stroke-linecap:round;stroke-linejoin:round;stroke-miterlimit:10;" d="
						M409.161,126.908c0,0-13.558,9.432-13.263,14.737c0.295,5.305-0.589,18.568,3.832,27.41c4.421,8.842,10.61,17.389,10.61,17.389
						s-2.653,22.989-2.358,28.884c0.295,5.895,5.01,2.947,10.316-3.537c5.305-6.484,10.611-20.926,10.611-20.926l-3.242-3.832
						l0.589-4.716c0,0,7.074-6.189,9.137-11.495c1.115-2.868,0.884-9.137,0.884-9.137s3.832-1.474,5.01-5.305
						c1.179-3.831,1.179-3.831,1.179-3.831s-4.716-2.358-7.663-4.421c-2.947-2.063-8.842-7.958-8.842-7.958
						S413.876,133.982,409.161,126.908z"/>
					<path style="fill:none;stroke:#263238;stroke-miterlimit:10;" d="M408.571,148.424c0,0-1.474,15.031,0.295,18.273
						c1.768,3.242,6.484,0,6.484,0"/>
					<path style="fill:none;stroke:#263238;stroke-miterlimit:10;" d="M410.045,172.887c0,0,7.663,1.474,11.789-3.832"/>
					<ellipse style="fill:#263238;" cx="419.182" cy="149.75" rx="1.768" ry="2.211"/>
					<ellipse style="fill:#263238;" cx="402.676" cy="149.75" rx="1.768" ry="2.211"/>
					<path style="fill:none;stroke:#263238;stroke-miterlimit:10;" d="M415.939,141.645c0,0,4.421-1.768,7.074,0.884"/>
					<path style="fill:none;stroke:#263238;stroke-miterlimit:10;" d="M405.918,141.94c0,0-4.421-2.063-6.189,2.063"/>
				</g>
			</g>
			<polyline style="fill:none;stroke:#263238;stroke-linecap:round;stroke-linejoin:round;stroke-miterlimit:10;" points="
				383.908,238.258 387.582,257.712 380.072,285.951 			"/>
			
				<line style="fill:none;stroke:#263238;stroke-linecap:round;stroke-linejoin:round;stroke-miterlimit:10;" x1="382.475" y1="230.674" x2="383.091" y2="233.932"/>
			<g>
				<path style="fill:#92E3A9;stroke:#263238;stroke-linecap:round;stroke-linejoin:round;stroke-miterlimit:10;" d="
					M451.308,200.887c0,0,9.243,4.323,8.734,7.31c-0.509,2.988,2.206,68.921-0.988,73.467c-3.194,4.546-12.157,3.018-12.157,3.018
					s-3.798-11.833-7.673-15.417c-3.875-3.584-5.305-2.358-5.305-2.358l2.653-40.084"/>
				<path style="fill:#FFFFFF;stroke:#263238;stroke-linecap:round;stroke-linejoin:round;stroke-miterlimit:10;" d="
					M365.285,280.817c0,0-1.921,2.469-4.664,4.116c-2.744,1.646-6.311,2.469-3.841,3.567c2.469,1.098,6.311-0.549,8.506-1.921
					C367.481,285.207,365.285,280.817,365.285,280.817z"/>
				<path style="fill:#FFFFFF;stroke:#263238;stroke-linecap:round;stroke-linejoin:round;stroke-miterlimit:10;" d="
					M420.326,275.343c6.001-3.661,11.386-9.756,18.852-10.037c7.365-0.278,14.347,5.015,17.65,11.329
					c1.083,2.07,1.836,4.496,1.156,6.73c-1.276,4.193-6.519,5.412-10.872,5.927c-8.015,0.948-16.029,1.897-24.044,2.845
					c-14.378,1.701-29.523,3.303-42.856-2.341c-0.301,1.243-0.651,2.57-1.622,3.403c-0.97,0.833-2.767,0.792-3.274-0.381
					c-0.833,0.661-2.113,1.383-3.918,0.325c-0.253-0.148-1.53,0.505-2.861,0.273c-0.471-0.082-2.111-0.802-2.576-0.913
					c-0.613-0.147-1.28-0.361-1.603-0.903c-0.225-0.377-0.235-0.84-0.239-1.279c-0.025-2.83-0.042-5.714,0.801-8.415
					c3.384-10.847,15.476-4.901,21.91-0.646c2.191,1.449,4.498,2.945,7.113,3.191c1.942,0.182,3.873-0.347,5.752-0.872
					c6.915-1.931,14.207-4.353,20.52-8.168C420.253,275.387,420.289,275.365,420.326,275.343z"/>
				
					<line style="fill:none;stroke:#263238;stroke-linecap:round;stroke-linejoin:round;stroke-miterlimit:10;" x1="380.212" y1="289.796" x2="381.247" y2="285.723"/>
				<path style="fill:none;stroke:#263238;stroke-linecap:round;stroke-linejoin:round;stroke-miterlimit:10;" d="M375.438,292.341
					c0,0,0.549-11.249,2.469-13.719"/>
				<path style="fill:none;stroke:#263238;stroke-linecap:round;stroke-linejoin:round;stroke-miterlimit:10;" d="M371.596,292.615
					c0,0-0.823-9.878,1.098-14.542"/>
				<path style="fill:none;stroke:#263238;stroke-linecap:round;stroke-linejoin:round;stroke-miterlimit:10;" d="M367.444,292.574
					c0,0-0.786-7.557,0.586-12.854"/>
			</g>
		</g>
	</g>
</g>
<g id="Character_1">
	<g>
		<path style="fill:#263238;stroke:#263238;stroke-linecap:round;stroke-linejoin:round;stroke-miterlimit:10;" d="M35.195,293.722
			l-7.497-70.31c-0.235-2.204,1.492-4.125,3.708-4.125h48.47c1.749,0,3.263,1.215,3.641,2.923l15.845,71.512H35.195z"/>
		<g>
			<path style="fill:#FFFFFF;stroke:#263238;stroke-linecap:round;stroke-linejoin:round;stroke-miterlimit:10;" d="M94.468,174.478
				c0,0-30.564,16.264-31.405,22.713c-0.841,6.449-3.365,96.423-3.365,96.423h80.196c0,0-7.851-35.294-8.693-39.5
				s-1.963-11.497-1.963-11.497l26.421,12.018l3.926-26.358c0,0-13.803-19.869-22.496-30.805
				c-8.693-10.936-19.909-19.348-24.956-20.47C107.086,175.88,94.468,174.478,94.468,174.478z"/>
			<g>
				<polyline style="fill:none;stroke:#263238;stroke-miterlimit:10;" points="129.238,242.616 130.747,229.763 134.993,214.758 
									"/>
				<line style="fill:none;stroke:#263238;stroke-miterlimit:10;" x1="130.747" y1="229.763" x2="131.596" y2="216.457"/>
				<path style="fill:none;stroke:#263238;stroke-miterlimit:10;" d="M121.38,248.433c0.724,0.291,1.397,0.579,2.006,0.863"/>
				<path style="fill:none;stroke:#263238;stroke-miterlimit:10;" d="M93.943,240.52c0,0,14.186,3.259,23.944,6.622"/>
				<path style="fill:none;stroke:#263238;stroke-miterlimit:10;" d="M111.213,208.247c0,0,1.416,22.365,1.982,23.781
					c0.566,1.415,3.68,0.283,3.68,0.283l-1.982-13.023"/>
				<line style="fill:none;stroke:#263238;stroke-miterlimit:10;" x1="86.149" y1="221.468" x2="88.281" y2="218.439"/>
				<line style="fill:none;stroke:#263238;stroke-miterlimit:10;" x1="77.523" y1="233.726" x2="84.008" y2="224.511"/>
			</g>
			<path style="fill:#FFFFFF;stroke:#263238;stroke-linecap:round;stroke-linejoin:round;stroke-miterlimit:10;" d="
				M103.664,168.028c0,0-8.973,1.963-10.656,3.645c-1.682,1.682-4.486,12.057-4.486,12.057l5.047,26.358
				c0,0,14.301-12.618,16.264-13.179c1.963-0.561,18.787,9.253,18.787,9.253s-0.561-13.179-4.767-21.591
				c-4.206-8.412-7.851-11.777-11.777-14.301C108.15,167.748,103.664,168.028,103.664,168.028z"/>
			<g>
				<path style="fill:#FFFFFF;stroke:#263238;stroke-linecap:round;stroke-linejoin:round;stroke-miterlimit:10;" d="
					M103.664,149.802c0,0-1.963,14.581-2.524,19.348c-0.561,4.767-3.365,2.524-1.682,8.412c1.682,5.889,10.936,30.003,12.899,28.041
					c1.963-1.963,8.132-25.797,9.534-27.48s3.926-5.047,3.926-5.047L103.664,149.802z"/>
				<path style="fill:#263238;stroke:#263238;stroke-linecap:round;stroke-linejoin:round;stroke-miterlimit:10;" d="
					M103.484,151.142c-0.383,2.857-1.294,9.682-1.902,14.447l21.451,7.571l-1.72-4.816l-15.736-16.533L103.484,151.142z"/>
			</g>
			<g>
				<path style="fill:#FFFFFF;stroke:#263238;stroke-linecap:round;stroke-linejoin:round;stroke-miterlimit:10;" d="
					M70.913,189.339c0,0-10.655,5.889-10.936,8.973c-0.28,3.085-19.909,72.064-17.946,77.392c1.963,5.328,11.216,6.169,11.216,6.169
					s8.692-14.301,13.459-16.824c4.767-2.524,6.449-3.084,6.449-3.084l10.095-47.949"/>
				<path style="fill:#FFFFFF;stroke:#263238;stroke-linecap:round;stroke-linejoin:round;stroke-miterlimit:10;" d="
					M140.174,278.228c0,0,1.963,2.524,4.767,4.206c2.804,1.682,6.449,2.524,3.926,3.645c-2.524,1.122-6.449-0.561-8.693-1.963
					C137.93,282.714,140.174,278.228,140.174,278.228z"/>
				<path style="fill:#FFFFFF;stroke:#263238;stroke-linecap:round;stroke-linejoin:round;stroke-miterlimit:10;" d="
					M78.484,267.012c0,0-0.168-0.214-0.468-0.562c-0.986-1.147-3.402-3.756-5.982-5.046c-3.365-1.682-13.459-1.963-22.152,8.132
					c-8.693,10.095-4.206,15.142,2.804,16.824c7.01,1.682,33.368,3.084,39.818,4.206c6.449,1.122,18.507,1.963,22.993,0
					c4.486-1.963,9.253-3.365,9.253-3.365s1.402,4.486,3.365,4.486c1.963,0,1.682-1.682,1.682-1.682s1.122,1.122,1.963,1.122
					c0.841,0,1.963-0.841,1.963-0.841s1.402,1.122,3.084,0.561c1.683-0.561,1.683-1.402,1.683-1.402s1.963,1.682,2.804,0
					c0.841-1.682-0.561-7.29-1.122-11.216c-0.561-3.926-3.365-3.926-3.365-3.926l-0.863-0.613c-0.876-0.623-1.98-0.834-3.024-0.579
					l-1.441,0.352c0,0-2.804-0.561-4.206,0c-1.402,0.561-13.179,7.571-14.861,8.412c-1.683,0.841-6.169,0-11.216-1.963
					C96.15,277.947,81.008,271.218,78.484,267.012z"/>
				
					<line style="fill:none;stroke:#263238;stroke-linecap:round;stroke-linejoin:round;stroke-miterlimit:10;" x1="124.751" y1="287.201" x2="123.862" y2="283.241"/>
				<path style="fill:#FFFFFF;stroke:#263238;stroke-linecap:round;stroke-linejoin:round;stroke-miterlimit:10;" d="
					M57.735,277.387c6.169-8.412,20.75-10.375,20.75-10.375s-0.168-0.214-0.468-0.562c-0.986-1.147-3.402-3.756-5.982-5.046
					c-3.365-1.682-13.459-1.963-22.152,8.132c-8.692,10.095-4.206,15.142,2.804,16.824c0.797,0.191,1.854,0.379,3.094,0.563
					C54.967,284.415,54.994,281.123,57.735,277.387z"/>
				<path style="fill:none;stroke:#263238;stroke-linecap:round;stroke-linejoin:round;stroke-miterlimit:10;" d="M129.799,290.005
					c0,0-0.561-11.497-2.524-14.02"/>
				<path style="fill:none;stroke:#263238;stroke-linecap:round;stroke-linejoin:round;stroke-miterlimit:10;" d="M133.724,290.285
					c0,0,0.841-10.095-1.122-14.861"/>
				<path style="fill:none;stroke:#263238;stroke-linecap:round;stroke-linejoin:round;stroke-miterlimit:10;" d="M138.491,289.444
					c0,0,0.28-6.923-1.122-12.338"/>
			</g>
			<g>
				<path style="fill:#FFFFFF;stroke:#263238;stroke-linecap:round;stroke-linejoin:round;stroke-miterlimit:10;" d="
					M159.548,228.255c0,0-2.953-3.938-4.922-1.969c-1.969,1.969-4.529,18.705-4.529,23.825c0,5.119-0.788,4.923,5.316,6.104
					c6.104,1.181,8.27,1.575,10.632,0.394c2.363-1.181-0.984-8.663-2.757-14.767C161.517,235.737,159.548,228.255,159.548,228.255z"
					/>
				<g>
					<g>
						<path style="fill:#FFFFFF;stroke:#263238;stroke-linecap:round;stroke-linejoin:round;stroke-miterlimit:10;" d="
							M167.347,143.148c0.759-0.168,1.583-0.146,2.484,0.113"/>
						<path style="fill:#FFFFFF;stroke:#263238;stroke-linecap:round;stroke-linejoin:round;stroke-miterlimit:10;" d="
							M155.29,160.214c0.668-0.594,1.353-1.303,2.028-2.151c2.229-2.796,4.071-10.735,7.819-13.797"/>
						<path style="fill:#FFFFFF;stroke:#263238;stroke-linecap:round;stroke-linejoin:round;stroke-miterlimit:10;" d="
							M152.871,158.874c0,0,2.992-1.55,3.839-7.039"/>
					</g>
					<path style="fill:#FFFFFF;stroke:#263238;stroke-linecap:round;stroke-linejoin:round;stroke-miterlimit:10;" d="
						M164.47,186.316l-2.166,13.389c0,0,18.115,37.805,18.312,44.893c0.197,7.088-1.969,11.223-9.845,12.011
						c-7.876,0.788-9.845-0.984-11.814-8.86c-1.969-7.876-3.347-47.256-3.347-47.256s-3.741-5.119-4.726-6.892
						c-0.985-1.772-1.378-4.529-1.378-5.119c0-0.591-1.378-17.13-1.378-17.13l14.177-0.197L164.47,186.316z"/>
					<path style="fill:#FFFFFF;stroke:#263238;stroke-linecap:round;stroke-linejoin:round;stroke-miterlimit:10;" d="
						M163.371,184.643l-7.262,1.064c-0.91,0.178-1.792-0.415-1.97-1.325l-0.357-1.821c-0.178-0.91,0.415-1.792,1.325-1.971
						l7.262-1.064c0.91-0.178,1.792,0.415,1.971,1.325l0.357,1.821C164.874,183.582,164.281,184.465,163.371,184.643z"/>
					<path style="fill:#FFFFFF;stroke:#263238;stroke-linecap:round;stroke-linejoin:round;stroke-miterlimit:10;" d="
						M164.304,188.464l-5.278,0.774c-0.661,0.13-1.303-0.301-1.432-0.963l-0.259-1.323c-0.13-0.661,0.301-1.303,0.963-1.432
						l5.278-0.774c0.661-0.13,1.303,0.301,1.432,0.963l0.259,1.324C165.396,187.693,164.965,188.334,164.304,188.464z"/>
					<path style="fill:#FFFFFF;stroke:#263238;stroke-linecap:round;stroke-linejoin:round;stroke-miterlimit:10;" d="
						M163.486,173.714l-7.679,1.126c-0.962,0.189-1.895-0.439-2.084-1.401l-0.377-1.925c-0.189-0.962,0.439-1.895,1.401-2.084
						l7.679-1.126c0.962-0.189,1.895,0.439,2.084,1.401l0.377,1.925C165.075,172.592,164.448,173.525,163.486,173.714z"/>
					<path style="fill:#FFFFFF;stroke:#263238;stroke-linecap:round;stroke-linejoin:round;stroke-miterlimit:10;" d="
						M164.273,179.424l-7.679,1.126c-0.962,0.189-1.895-0.439-2.084-1.401l-0.377-1.926c-0.189-0.962,0.439-1.895,1.401-2.084
						l7.679-1.126c0.962-0.189,1.895,0.439,2.084,1.401l0.377,1.925C165.863,178.302,165.236,179.235,164.273,179.424z"/>
				</g>
			</g>
			<g>
				<path style="fill:#263238;stroke:#263238;stroke-linecap:round;stroke-linejoin:round;stroke-miterlimit:10;" d="
					M101.273,142.077c0,0-2.128-21.278-4.681-28.513c-2.553-7.235,6.809-15.32,28.938-14.895
					c22.129,0.425,30.215,10.214,30.641,14.895c0.425,4.681-5.107,8.086-5.107,8.086l-2.128,5.958l-19.576-4.681
					c0,0,0,5.107-1.702,7.235c-1.702,2.128-11.49,5.532-11.49,5.532s-2.128,7.66-5.532,11.49c-3.405,3.83-8.511,3.405-8.937,0.851
					C101.273,145.482,101.273,142.077,101.273,142.077z"/>
				<g>
					<path style="fill:#FFFFFF;stroke:#263238;stroke-linecap:round;stroke-linejoin:round;stroke-miterlimit:10;" d="
						M106.38,145.908c0,0,1.277-8.511-5.532-8.511c-6.809,0-5.107,8.511-2.979,12.767c2.128,4.256,4.681,5.107,4.681,5.107
						s13.192,17.448,17.874,20.001c4.681,2.553,7.235,4.256,10.639,2.553c3.404-1.702,13.618-14.469,15.32-21.278
						c1.702-6.809,1.702-11.49,1.702-11.49s3.83-8.086,3.83-11.916c0-3.83-0.851-11.49-0.851-11.49s-18.725-6.809-24.257-5.532
						c-5.532,1.277-8.086,0.851-5.532,2.979c2.553,2.128,3.83,8.511,2.128,9.362c-1.702,0.851-11.916,0.851-11.916,4.681
						c0,3.83,1.277,5.958-0.426,8.086C109.359,143.354,106.38,145.908,106.38,145.908z"/>
					<path style="fill:none;stroke:#263238;stroke-miterlimit:10;" d="M134.205,159.56c0,0,5.889,0.841,7.01-0.561
						c1.122-1.402,0.841-12.057,0.841-12.057l4.206-5.889c0,0,2.524-1.682,3.645,0"/>
					<line style="fill:none;stroke:#263238;stroke-miterlimit:10;" x1="132.242" y1="168.533" x2="136.168" y2="167.131"/>
					<path style="fill:#263238;" d="M130.799,144.915c-0.4,1.509-1.44,2.542-2.324,2.308s-1.276-1.647-0.877-3.156
						c0.4-1.509,1.44-2.542,2.324-2.308C130.806,141.993,131.198,143.406,130.799,144.915z"/>
					<path style="fill:#263238;" d="M146.741,147.366c-0.4,1.509-1.44,2.542-2.324,2.308c-0.884-0.234-1.277-1.647-0.877-3.156
						c0.4-1.509,1.44-2.542,2.324-2.308C146.748,144.444,147.141,145.857,146.741,147.366z"/>
					<path style="fill:none;stroke:#263238;stroke-miterlimit:10;" d="M126.914,137.408c0,0,4.206-2.804,10.375,0.841"/>
				</g>
			</g>
			<path style="fill:#FFFFFF;stroke:#263238;stroke-linecap:round;stroke-linejoin:round;stroke-miterlimit:10;" d="
				M135.619,164.016l4.53,29.443l15.571-1.132l0.849-29.726C156.568,162.601,150.057,160.336,135.619,164.016z"/>
		</g>
	</g>
</g>
<g id="Device_3">
	<g>
		<path style="fill:#FFFFFF;stroke:#263238;stroke-linecap:round;stroke-linejoin:round;stroke-miterlimit:10;" d="M347.42,405.627
			l11.953,50.602c0.359,1.519-0.794,2.976-2.355,2.976h-15.083v3.797h19.089c2.934,0,5.076-2.774,4.333-5.613l-14.984-57.246
			L347.42,405.627z"/>
		
			<rect x="344.889" y="352.472" transform="matrix(0.9848 0.1738 -0.1738 0.9848 74.8426 -54.4369)" style="fill:#263238;stroke:#263238;stroke-linecap:round;stroke-linejoin:round;stroke-miterlimit:10;" width="6.75" height="95.343"/>
		
			<rect x="258.904" y="460.366" style="fill:#FFFFFF;stroke:#263238;stroke-linecap:round;stroke-linejoin:round;stroke-miterlimit:10;" width="60.987" height="2.635"/>
	</g>
</g>
<g id="Device_2">
	<g>
		
			<rect x="283.705" y="290.352" style="fill:#263238;stroke:#263238;stroke-linecap:round;stroke-linejoin:round;stroke-miterlimit:10;" width="119.452" height="3.417"/>
		
			<rect x="361.224" y="290.352" style="fill:#FFFFFF;stroke:#263238;stroke-linecap:round;stroke-linejoin:round;stroke-miterlimit:10;" width="41.933" height="3.417"/>
		<path style="fill:#FFFFFF;stroke:#263238;stroke-linecap:round;stroke-linejoin:round;stroke-miterlimit:10;" d="M362.637,290.352
			h-77.558l-7.543-51.586c-0.359-2.456,1.341-4.448,3.797-4.448h68.663c2.456,0,4.739,1.991,5.098,4.448L362.637,290.352z"/>
		<path style="fill:#FFFFFF;stroke:#263238;stroke-linecap:round;stroke-linejoin:round;stroke-miterlimit:10;" d="M361.15,290.352
			h-77.558l-7.543-51.586c-0.359-2.456,1.341-4.448,3.797-4.448h68.663c2.456,0,4.739,1.991,5.098,4.448L361.15,290.352z"/>
	</g>
</g>
<g id="Device_1">
	<g>
		
			<rect x="119.959" y="290.277" transform="matrix(-1 -1.224647e-16 1.224647e-16 -1 361.9942 584.0452)" style="fill:#263238;stroke:#263238;stroke-linecap:round;stroke-linejoin:round;stroke-miterlimit:10;" width="122.077" height="3.492"/>
		
			<rect x="119.959" y="290.277" transform="matrix(-1 -1.224647e-16 1.224647e-16 -1 282.7717 584.0452)" style="fill:#92E3A9;stroke:#263238;stroke-linecap:round;stroke-linejoin:round;stroke-miterlimit:10;" width="42.854" height="3.492"/>
		<path style="fill:#92E3A9;stroke:#263238;stroke-linecap:round;stroke-linejoin:round;stroke-miterlimit:10;" d="M161.37,290.277
			h79.262l7.709-52.719c0.367-2.51-1.37-4.546-3.881-4.546h-70.171c-2.51,0-4.843,2.035-5.21,4.546L161.37,290.277z"/>
		<path style="fill:#92E3A9;stroke:#263238;stroke-linecap:round;stroke-linejoin:round;stroke-miterlimit:10;" d="M162.889,290.277
			h79.262l7.709-52.719c0.367-2.51-1.37-4.546-3.881-4.546h-70.171c-2.51,0-4.843,2.035-5.21,4.546L162.889,290.277z"/>
		<path style="fill:#263238;stroke:#263238;stroke-linecap:round;stroke-linejoin:round;stroke-miterlimit:10;" d="M204.849,259.978
			c0.401-2.745,2.952-4.97,5.696-4.97c2.745,0,4.644,2.225,4.243,4.97c-0.401,2.744-2.952,4.969-5.696,4.969
			C206.347,264.947,204.447,262.722,204.849,259.978z"/>
	</g>
</g>
<g id="Table_3">
	
		<line style="fill:none;stroke:#263238;stroke-linecap:round;stroke-linejoin:round;stroke-miterlimit:10;" x1="25" y1="463.013" x2="491.721" y2="463.013"/>
</g>
<g id="Table_2">
	
		<line style="fill:#FFFFFF;stroke:#263238;stroke-linecap:round;stroke-linejoin:round;stroke-miterlimit:10;" x1="481.727" y1="293.768" x2="269.606" y2="293.768"/>
</g>
<g id="Table_1">
	
		<line style="fill:none;stroke:#263238;stroke-linecap:round;stroke-linejoin:round;stroke-miterlimit:10;" x1="256.98" y1="293.768" x2="22.636" y2="293.768"/>
</g>
<g id="Character_3">
	<g>
		<path style="fill:#263238;stroke:#263238;stroke-linecap:round;stroke-linejoin:round;stroke-miterlimit:10;" d="M189.913,306.008
			c0,0-1.797-17.199-10.782-22.59s-4.364,9.241-4.364,10.012c0,0.77-13.349-14.119-24.644-5.904
			c-11.295,8.215-0.77,25.414-0.77,25.414s-13.605-4.621-13.349,0.257c0.257,4.878,12.835,8.985,12.835,8.985
			s-22.847,2.31-14.632,12.579c8.215,10.268,30.548,2.824,30.548,2.824s-6.161,6.674-1.797,7.444
			c4.364,0.77,21.05-12.322,22.59-15.659C187.09,326.031,195.818,316.019,189.913,306.008z"/>
		<path style="fill:#263238;stroke:#263238;stroke-linecap:round;stroke-linejoin:round;stroke-miterlimit:10;" d="M240.759,337.514
			c0,0,8.352-0.44,12.747-7.472c4.396-7.033,2.637-11.868-3.956-14.505c-6.593-2.637-15.824-1.319-15.824-1.319
			s-14.066-17.582-33.846-13.187c-19.78,4.396-22.417,19.78-21.099,27.692c1.319,7.912,5.275,31.648,5.275,31.648
			s16.263,2.637,20.659-1.758c4.395-4.396,12.747-20.22,21.538-22.417C235.045,333.998,240.759,337.514,240.759,337.514z"/>
		<g>
			<path style="fill:none;stroke:#263238;stroke-linecap:round;stroke-linejoin:round;stroke-miterlimit:10;" d="M243.686,352.672
				c-0.532,3.946-3.365,9.495-6.089,9.127c-2.724-0.367-4.5-3.864-3.968-7.81c0.532-3.947,3.391-4.5,6.115-4.133
				C242.466,350.223,244.217,348.726,243.686,352.672z"/>
			<path style="fill:#FFFFFF;stroke:#263238;stroke-linecap:round;stroke-linejoin:round;stroke-miterlimit:10;" d="
				M196.804,348.064c0,0,3.516,1.319,8.791-2.637c5.275-3.956,5.275-13.626,16.703-15.824c11.428-2.198,18.901,3.077,19.34,6.154
				c0.44,3.077-1.319,9.231-1.319,15.384c0,6.154,1.319,9.231,2.637,10.549c1.319,1.319,3.077,0.439,0.44,3.077
				c-2.637,2.637-7.912,5.714-7.912,5.714s-7.472,14.066-10.549,16.703c-3.077,2.637-10.549,1.319-13.187,0
				c-2.637-1.319-8.352-4.395-8.352-4.395l-3.516,12.307l-21.099-17.143l5.275-17.582
				C184.057,360.371,194.606,357.734,196.804,348.064z"/>
			<polygon style="fill:#263238;stroke:#263238;stroke-linecap:round;stroke-linejoin:round;stroke-miterlimit:10;" points="
				203.397,382.789 197.74,376.355 200.793,389.789 			"/>
			<path style="fill:#263238;" d="M236.884,353.906c-0.154,1.694-1.023,3-1.941,2.917c-0.918-0.084-1.537-1.525-1.383-3.219
				c0.154-1.694,1.023-3,1.941-2.917C236.419,350.771,237.038,352.212,236.884,353.906z"/>
			
				<line style="fill:none;stroke:#263238;stroke-linecap:round;stroke-linejoin:round;stroke-miterlimit:10;" x1="228.478" y1="349.856" x2="198.385" y2="347.851"/>
			
				<line style="fill:none;stroke:#263238;stroke-linecap:round;stroke-linejoin:round;stroke-miterlimit:10;" x1="238.431" y1="354.012" x2="240.869" y2="354.012"/>
			<path style="fill:none;stroke:#263238;stroke-linecap:round;stroke-linejoin:round;stroke-miterlimit:10;" d="M231.757,343.23
				c0,0,3.594-2.054,6.674,0.77"/>
			<path style="fill:none;stroke:#263238;stroke-linecap:round;stroke-linejoin:round;stroke-miterlimit:10;" d="M231.757,375.576
				c0,0-3.337,0-5.648-3.851"/>
		</g>
		<g>
			<path style="fill:#92E3A9;stroke:#263238;stroke-linecap:round;stroke-linejoin:round;stroke-miterlimit:10;" d="
				M202.999,406.511l3.953,56.752h-86.681c0,0,13.553-43.199,17.788-52.234c4.235-9.035,9.6-12.988,9.6-12.988
				s11.012-9.882,25.976-7.906C188.599,392.111,202.999,406.511,202.999,406.511z"/>
			<path style="fill:#FFFFFF;stroke:#263238;stroke-linecap:round;stroke-linejoin:round;stroke-miterlimit:10;" d="M199.441,351.58
				c0,0-1.758-8.791-7.912-7.472c-6.154,1.319-3.077,14.945,0.879,18.901c3.956,3.956,6.593-0.44,6.593-0.44"/>
			<g>
				<path style="fill:#92E3A9;stroke:#263238;stroke-linecap:round;stroke-linejoin:round;stroke-miterlimit:10;" d="
					M204.693,410.182c0,0,3.388-5.929,0.565-10.729c-2.823-4.8-11.294-14.4-22.87-23.435c-11.576-9.035-26.823-20.611-29.082-14.4
					c-2.259,6.212-3.953,18.353-3.953,18.353s-9.882,1.694-11.012,4.8c-1.129,3.106-2.259,18.635-0.565,20.611
					c1.694,1.976,2.824-0.282,6.494-0.282c3.671,0,25.976-7.341,34.447-6.776c8.47,0.565,9.882,3.106,16.376,6.494
					C201.587,408.205,204.693,410.182,204.693,410.182z"/>
				<path style="fill:none;stroke:#263238;stroke-linecap:round;stroke-linejoin:round;stroke-miterlimit:10;" d="M198.889,399.937
					c1.978,1.542,3.511,2.931,4.392,4.033"/>
				<path style="fill:none;stroke:#263238;stroke-linecap:round;stroke-linejoin:round;stroke-miterlimit:10;" d="M156.094,385.688
					c6.459-1.341,14.294-2.047,19.8,0.494c6.823,3.149,14.405,7.599,19.992,11.536"/>
				<path style="fill:none;stroke:#263238;stroke-linecap:round;stroke-linejoin:round;stroke-miterlimit:10;" d="M144.553,389.005
					c0,0,4.219-1.641,9.854-2.947"/>
				<path style="fill:none;stroke:#263238;stroke-linecap:round;stroke-linejoin:round;stroke-miterlimit:10;" d="M153.023,379.97
					c0,0,7.059-2.823,16.658,0.282"/>
			</g>
			<path style="fill:#92E3A9;stroke:#263238;stroke-linecap:round;stroke-linejoin:round;stroke-miterlimit:10;" d="M163.753,408.77
				c2.259-4.8,9.6-15.529,20.894-9.882c11.294,5.647,14.117,19.2,19.2,35.858c5.082,16.659,9.882,28.517,9.882,28.517h-42.07
				l-10.447-42.07"/>
		</g>
		<path style="fill:#FFFFFF;stroke:#263238;stroke-linecap:round;stroke-linejoin:round;stroke-miterlimit:10;" d="M254.344,463.178
			l4.67-4.003c0,0,5.538,1.324,14.557-1.456c9.019-2.78,12.01-5.459,12.01-5.459s4.003,1.82,8.145,4.565
			c4.142,2.745,7.14,3.806,11.143,2.714s-1.092-2.184-5.524-5.307c-4.432-3.124-9.761-7.43-9.761-7.43s8.37,4.003,11.282,5.095
			c2.911,1.092,5.823,2.911,8.37,1.82c2.547-1.092,1.456-2.184-5.095-5.459c-6.002-3.001-12.737-8.734-16.013-8.734
			c-3.275,0-18.196,6.187-18.196,6.187l-29.21,17.468H254.344z"/>
		<g>
			<g>
				<path style="fill:#263238;stroke:#263238;stroke-linecap:round;stroke-linejoin:round;stroke-miterlimit:10;" d="
					M264.552,456.132c0,0,3.561,1.224,6.836,0.496c3.275-0.728,7.642-1.456,7.642-1.456s8.734,0.364,11.646,0
					c2.911-0.364,2.184-2.184-2.548-4.003c-4.731-1.82-22.563-2.911-22.927-1.82C264.837,450.44,264.552,456.132,264.552,456.132z"
					/>
				<path style="fill:#FFFFFF;stroke:#263238;stroke-linecap:round;stroke-linejoin:round;stroke-miterlimit:10;" d="
					M291.133,446.407c0,0,6.915,2.593,8.212,3.458c1.297,0.864,3.89,1.513,2.809,3.025c-1.081,1.513-4.538,0.216-6.915-0.216
					c-2.377-0.432-5.403-1.945-5.403-1.945L291.133,446.407z"/>
				<path style="fill:#FFFFFF;stroke:#263238;stroke-linecap:round;stroke-linejoin:round;stroke-miterlimit:10;" d="
					M273.197,442.517c0,0,12.318,0.648,15.127,1.513c2.809,0.865,4.97,6.699,5.403,8.428c0.432,1.729,1.945,3.89,0.648,4.106
					c-1.297,0.216-6.051-5.187-7.996-6.267c-1.945-1.081-9.725-4.754-12.534-5.835C271.035,443.381,271.684,442.301,273.197,442.517
					z"/>
				<path style="fill:#FFFFFF;stroke:#263238;stroke-linecap:round;stroke-linejoin:round;stroke-miterlimit:10;" d="
					M237.069,461.046c0,0,28.235-19.953,31.247-19.953c3.012,0,16.564,6.023,19.576,7.529c3.012,1.506,6.776,9.788,6.776,9.788
					s-0.753,1.882-3.388,0.376c-2.635-1.506-5.647-6.4-5.647-6.4l-15.029-0.578c0,0-3.792,3.569-6.051,4.322
					c-2.259,0.753-7.564,1.297-7.564,1.297l-4.861,4.37L237.069,461.046z"/>
			</g>
			<polygon style="fill:#92E3A9;stroke:#263238;stroke-linecap:round;stroke-linejoin:round;stroke-miterlimit:10;" points="
				250.505,451.377 256.988,463.263 228.895,463.263 			"/>
		</g>
		<path style="fill:none;stroke:#263238;stroke-linecap:round;stroke-linejoin:round;stroke-miterlimit:10;" d="M238.898,349.293
			c0,0-8.449-3.098-9.575-1.126c-1.127,1.971-2.253,9.293,2.253,12.391c4.506,3.098,6.855-6.545,6.855-6.545"/>
	</g>
</g>
<g id="Clock">
	<g>
		
			<circle style="fill:#263238;stroke:#263238;stroke-linecap:round;stroke-linejoin:round;stroke-miterlimit:10;" cx="264" cy="118" r="37"/>
		
			<circle style="fill:#FFFFFF;stroke:#263238;stroke-linecap:round;stroke-linejoin:round;stroke-miterlimit:10;" cx="264" cy="118" r="32.973"/>
		
			<polyline style="fill:none;stroke:#263238;stroke-width:3;stroke-linecap:round;stroke-linejoin:round;stroke-miterlimit:10;" points="
			255.169,127.26 264,118 286.99,134.747 		"/>
	</g>
</g>
</svg>
